<mxfile host="app.diagrams.net" agent="Mozilla/5.0 (X11; Linux x86_64) AppleWebKit/537.36 (KHTML, like Gecko) Chrome/124.0.0.0 Safari/537.36" version="27.0.8">
  <diagram name="Page-1" id="9ow6eN2219G_9W0T1Nan">
    <mxGraphModel dx="2053" dy="693" grid="1" gridSize="10" guides="1" tooltips="1" connect="1" arrows="1" fold="1" page="1" pageScale="1" pageWidth="850" pageHeight="1100" math="0" shadow="0">
      <root>
        <mxCell id="0" />
        <mxCell id="1" parent="0" />
        <mxCell id="tUkZWnW8giM7kNb6S3YY-3" style="edgeStyle=orthogonalEdgeStyle;rounded=0;orthogonalLoop=1;jettySize=auto;html=1;entryX=0;entryY=0.5;entryDx=0;entryDy=0;" parent="1" source="tUkZWnW8giM7kNb6S3YY-1" target="tUkZWnW8giM7kNb6S3YY-2" edge="1">
          <mxGeometry relative="1" as="geometry" />
        </mxCell>
        <mxCell id="tUkZWnW8giM7kNb6S3YY-1" value="Save conversation" style="rounded=0;whiteSpace=wrap;html=1;" parent="1" vertex="1">
          <mxGeometry x="100" y="330" width="120" height="60" as="geometry" />
        </mxCell>
        <mxCell id="tUkZWnW8giM7kNb6S3YY-2" value="Long term memory" style="rounded=0;whiteSpace=wrap;html=1;" parent="1" vertex="1">
          <mxGeometry x="350" y="350" width="120" height="60" as="geometry" />
        </mxCell>
        <mxCell id="tUkZWnW8giM7kNb6S3YY-43" style="edgeStyle=orthogonalEdgeStyle;rounded=0;orthogonalLoop=1;jettySize=auto;html=1;entryX=0;entryY=0.5;entryDx=0;entryDy=0;" parent="1" source="tUkZWnW8giM7kNb6S3YY-4" target="tUkZWnW8giM7kNb6S3YY-38" edge="1">
          <mxGeometry relative="1" as="geometry" />
        </mxCell>
        <mxCell id="tUkZWnW8giM7kNb6S3YY-4" value="" style="shape=image;verticalLabelPosition=bottom;labelBackgroundColor=default;verticalAlign=top;aspect=fixed;imageAspect=0;image=data:image/png,iVBORw0KGgoAAAANSUhEUgAAAikAAAFiCAYAAAAz5EgsAAAABHNCSVQICAgIfAhkiAAAIABJREFUeF7sXQncTcX7f959x4uQkpCytNCKtKlspT1L+pXSnoT+/Srlp0WUCpVUSCXRrkSWNllCCBWRbJUtvF687+vd73++c80197zn3HvOvefee+69M33e3HPOnJlnvjNn5jvP88xMgosFUkEhoBBQCCgEFAIKAYWAwxBIdJg8ShyFgEJAIaAQUAgoBBQCHAFFUlRDUAgoBBQCCgGFgELAkQgokuLIalFCKQQUAgoBhYBCQCGgSIpqAwoBhYBCQCGgEFAIOBIBRVIcWS1KKIWAQkAhoBBQCCgEFElRbUAhoBBQCCgEFAIKAUcioEiKI6tFCaUQUAgoBBQCCgGFgCIpqg0oBBQCCgGFgEJAIeBIBBRJcWS1KKEUAgoBhYBCQCGgEFAkRbUBhYBCQCGgEFAIKAQciYAiKY6sFiWUQkAhoBBQCCgEFAKKpKg2oBBQCCgEFAIKAYWAIxFQJMWR1aKEUggoBBQCCgGFgEJAkRTVBhQCCgGFgEJAIaAQcCQCiqQ4slqUUAoBhYBCQCGgEFAIOJ6kbN68maZMmUJlZWWqthQCCgGFgEJAIaAQiCMEHE9SFi1aRI8//jiNGzcujqpFFVUhEL0INGzYkPCngkJAIaAQCBYBx5OUkpISXsbffvst2LKq9xUCCoEwIrB06dIw5qayAgIul4uWL19Ou3fvVoAoBGICAUeRlB07dtCqVato165dHnDx0SH8/fffjgcchGr+/PlUWloaEllVBxQSWFWiMYDA1q1b6eabb+Z/hYWFMVCiwIrw/vvv0w033ECPPvpoYAmotxQCDkMg4iTl33//pTfeeIMuuOACatu2LV1zzTV03nnn0ZIlS7yg+v333x0GXVVxBg0aRLfeeiu9++67VR/acEd1QDaAqJKISQTeeustWrhwIf9LS0uLyTKaKVR5eTmP9t1339GBAwfMvKLiKAQcjUBESEpxcTHNmjWL+vbtS+eccw6NGDGC/vrrLy+g/vzzT36dnp7uuV9QUOBoMIUG5dNPPw2JnKoDCgmsKtEYQuDss8+m5OTkGCpR4EU5dOhQ4C+rNxUCDkEgrF/zwYMHadKkSTR+/PgqKtlatWrRXXfdRTVr1uQzgB49enCIsrKyPFCFyoxid13k5+fbnWSV9NABVa9evcp9dUMhEI8IwMEeAdpYFdwIoB89/vjjFRwKgahGICwkZdu2bfTee+/RZ599Rvv27fMCrHnz5nT33XfTFVdcQampqVXAzMjI8NyrrKys8tyJN3bu3Mkd2BISEkImnuqAQgatSjjKENiwYQNhqwIEmI3jOchbNWBVZLVq1fiiA/S7mPDh+tlnn6VLL700nmFSZY8iBEJOUmCi6NKlSxXNydVXX82d3M4991yfcGVmZnqeV1RU+Iwb6YfCHAM57rjjDoJGBb40cORDB1G/fn16++23qUGDBgGJqjqggGBTL8U4Al9//TUvIb6xs846K8ZLW7V4mPzBJ2fLli1e/SwWIcgB/RD+MGkMNgh/F6XNDRbJ4N+H+wTqo27dusEn5sAUQk5SxIchl33u3LnUrFkzU3BEiqSYqXiQkhdeeIG+/fZbwsokeVXBN99841U+PNu4cSPl5eVZIimqAzLVTGI2kpl26LTCDxgwgJYtW0Zt2rQJi2gzZ87k+Vx55ZUB+aMAY2gb4POGjr5Jkya6Wl1/hdmzZw+fmDRt2tRfVNueFxUV0cCBAw3TA3GDnw7I22mnncb3r0H59AK0v/PmzSPgiXShbenUqRPBFC8HTLw6d+5Mxx57LC1evJhrjD/66CP66quvuMYGfTsmoK1bt9bLJmrurV27llsAoBkHhtD2N27cOOTyYzL+xx9/8DGldu3adOKJJxqa9uECcfnll3OfzgULFvD6/emnn2jixIn83gknnMCf33jjjXT48GF69dVXuZYf1osaNWpUKQvyxNYBsHDgzwkhgQnsXuMbQml69epFP/74oycHNO6HHnqIrr32Wr+dCmYDWPGDALtzoFoIqxWPD9RfxUMzctNNNxkih48bHfWZZ55JLVu25A3cCttFR+GroagOyBB6vw+wjwS0WjAV4EPu1q0br6fExND7kv/zzz+8E4LqHT4D9erV05UXHZCZdogOCAEdKhzOe/bsqdtu4MeEQQXE//zzz6ekpCTdfKPp5qZNm6hDhw5cZKx+a9++vWnx0bc899xzvFOWA74r9E3/93//R7m5uVXSwzYDyPf666/nHT1IzmOPPcbN2QhIE32eUcCgBzIwZ84c7oMHInDVVVcZRfd5HwMPCIjesmssSIBvn5l6xveAgUurfUHmr7/+OnXt2tUjB8qPVYwIiP/kk0/SF1984SXnxRdfbGmVI/wVt2/frttufQIQwEN/eWHyOXjwYPrwww+rpI7FHv/73/+q3DdzA+4KP//8M68vPVcA1AHqDG1DW5+XXXYZb4/a8QDxWrRowbMHMdm7d6/u8nOYQ9E+kQbCyJEjPX6fQnaMNyBjIm+ssMUYF/EAkhLqwGYorvvuu8/FBgOvP8a0XWz5sYs1GkMRVq9e7XmHdQyG8YwesD1XXA8++KCLVW6V/G+//XbXunXrqrwKeYWsrMG4pk6dWuVdPGcNTvc+numlWyUjPzdYo9GVG+mzDtnFPiY/KbgfAwNmXtOVla2y8krj+++/98RjsyLXAw88UOW9W265xVS+IhIjiC62wZSLfaSW3gskMlN7+sWeLRGvUiZgCoyAeSDBXxnZYOJ68cUXXWjz2u+AESTX7Nmzq2Rrth2iHTBVvyddtHe90Lt3b0+czz//XC9K1N0bM2YMLxO+b2YONSU/6pgNBlXqQVsvbCsE1y+//FIlTTYA83eRNwKbcFVJC9+cXpg2bVqVuEiLDfIufG9sfxMX08Z4XmVbNPB+Bv0JfjOC42JElP/LBhMeD89Gjx7tYsuvXUwL4kmfabP0RKhyD+mKMkEWRppcjLB40gG2aN8iIB+BFfIVvxHvkUcecbGtGFzoRxAY8XCxAdLzLhv4efqMSHu+NZQX3wDSQX8TaLAjL7QheazC98o0g151xiYYXiKiPaGORFixYoWre/fuLjbBcIm4wI8RH54OI3y8LkVAv8g0UYZ9vdwuGdGokrd4/vzzz3vJ2a9fPxcjJS62UIW/89JLL3meswm4Vzq4wFgg5yXLWCVyGG9A9RO2sGbNGt6AZSDwG437lVdecWGA0QZ8gCK+PPAzlSNv2Hj3mWeecbGN1LxeDVfFM9MVJ1ogU5BDyGqGQER7BxTsx6mta1/XdnRASJ9pT7zaHzokNvv23AP5k4MdZUQHJg8C2vYvrp9++mmvgRZ5m+2A5IFDj4AwNa5XudFuoz1gQBGkD9+e2QCc5TpA/WNwx+CPwRWdu/xcOzBcd911/DkGHaMJDNKTA2R96qmnvNJFGkL+Dz74wPXwww/z5xjEEYwIjSwbm+165cNMyp48zNaxTF5ffvllDyGZPHmyJy02y/fkw0xjVcoB2WVyJSJjQIa8zA/GxUzdVXAFLhjQ5TJhQhNIsCOvsWPHemRhfoUupn3koqxfv95zXzuxGz58OH82Y8YMHlcQLtwDLgijRo3yKiPyEYFp1KrgybQiPE9muqlCqIcMGeI14ZOxw2/kj0mLNoh2DfKkDRg/5X6QOV1ro0TsOqwkRZQSDR4fg1a7gZkLPjI5yDNEwVbl2YKoIGZr83ovXBUvZyp/1JgV+Qqx0AEF+3H6wkf7zI4OCJ2faC/4IMWHzMwqnsECHYAcgi0jU79W6YCYutgFwo7Onjk8utDuhVwYAPfv3+8RwWwHBHIl4iJPbZBn+yBMZrUO2nScdA3tkyiznsbDSFbUsXgPHbaeJhdaW7leZM2IaItyp470II/o0zCrlQNms3JdQgahCWG75bpQZ4LIikFEkCFtG5CvtWRI7i/1yKoWE2aG98gF7Qa+BQS2wzcnSyIvWZMCLGQZEM+oPQkMQf60M31oVbT3kC60M4GEYPMCyRL1h3+FJgFERdam4LuVA7RfkJuZ+TjJlbHBe9p7eI66FUE7noGcaANk69OnjydtmYBq2yHqTi8I8gQtmTZASSDLbaQJ1L4XjuvQG+B1DFp16tSh/v37c3smIyvcJwABtlrYZmW7qLwEGXHYh0ds9lslVTiwwulHBHmlDe7Bzgd74imnnMI3kMO20axj89izsUusWCWA+EImkR4OOIQDk68gbzwHO7Wv8PHHH/t6zJ9pl2vLm1TBFu0vwKaIHTgR2rVrR/feey/3uYBPBOz3IsA5S+837rGPldhAreu4BdsuAtNw8eMA2MDrSQcrkXCPqcQ99/ADO2EGEgQWsK1OmDDBKwnkxWYqVXwLxN4ZIjLrED3vob2gPtFO2GzYg7XWqTDYMmrbITP5EJtR0+mnn879lJjJkftaCedHpirmzm0imG2HqFMRtI6OcGKV2xuWpsbChmfCZwAYwSnUbJBXpKD/ycnJqfIq/MeYetxzH06JIqCfQpA3oIQ/EJxJ4byLgL5FBHyrw4YN81yjH2LaHO4bhABnx5SUFM8yanyrCGijcEKGzxG+XbRxpnHh7QO+BSg/nDnlIPtUadse4mnvyd8E/AbPOOMMgv8DfJbELt/wz5DThR+NHNCe/bUn4Pfaa695vTd9+nTPPbRZsScW+pNgQqB5wadD+GPgX/hnAAusQBX+RvC1wXerF7BqSnscAXzP5PFKfM/4ztkAz5OR2yOwxBilDYgj96XyWCX7tKFdGO2NwyY/PFm0NTkwUkTol0TAzulWfCe1stp9HfLVPb4ExvbVcIqF9zFIC1bEoHF88sknHs9wee8UDHCM8fEk0aDhsAWvfLENPWOsxFSX/LmViseAgYCK79ixI/+NihedkK+K55GPBNlBDQOnNqCDEB8zOiA4m8FZDCQBKwLgpIQVAmjsIFLa1RFmOiC5s9DrgJAHVhmJYEcHBHnR4chB7+MEnuLj1HMc0+Kld40OCMst5YC8hWM2OjsQRLQjubMDEYDXuwhwKESHgXiCAOFd4aStzTvQMsI5VgS0LeHkKqePOsNgBEIJfFAeNtPmUcy2Q0GmREcv0ocznHCWwz20KXS80R7QwYN8IVjdwA2YiOBrtYb8DYvBHc6P2skDvrMLL7yQJ4l9WkAe4CCJuPhmf/31V09+IP345rRBPkpDLKOGbL5W7mjTwLU8qRMDroiH/vO2227j5IeZWPgZY2JCCLnhdA0CJvcPIEfYTkEOGOTQzpA+viEcY+IviG9WvIf44pvFQgr0+SCMWCWEPjGYEGhewoEadYQAkiZjcdFFF3nGHz35sIu6NsgH44LIwrFV1Cm+WYxTcj2ddNJJ2iQ814LU4Ia86vWYY47xxNHrX8RD0TfI5+Ahb9SxCOgDtfVtKFCYHoRUk4KPHA0Gg7E4zVivXACP2eg82gvm3+GJJm/gJhMUMFt8aMzO5okrOi3cCFfFy+WROwi5I0QcsGDM0sV2/6IDAoMF+8ZKAXS20CQx57EqBAVp+OuAkD4+cgRtB4SOAJiY7YCQhtkOCB+nmF3yzFnAxynqAB+n3NmKAVXEtfKv3AGJ9+TOjtmFPbNLubNbuXIlj462htkQAkiTGHBQVmhUjPZ9CLSMcjsQnZ+QW/uvGBRlGcx2QKLTAuYyviA78owfWpRYCOhoRfuSv3UzZZO1CTiYUC+g/WJGiYA2gwEKQcxGxTtYEYPVVCKIWTZkwgogBHlJMgY+TKaEDGh/WA0kz2ShxQg0yMtKtbK++eabPFkQYQS5bWJgwiAN2bDyA+ep4ZtB36S3OkhojbWk2J/c0BRoA747zP4bNWrEHzGTFSd4wQareYljBC655BK+8kpoNaHBAi7MnG/YP8iyYtDXLkPH2AUiC62ZCEL7KZdVbEqoLTvOuJPHOnkzPpmwyNp8bRonn3wyvwViipOy0Uah5ZHzvPPOOz0aLe37kboOqSYF5gaoNRGgRrznnnu4GlE7EIDAgOWLzlSeqeidP4EPSOyzAtMR0oapAbNlsE3M0rUVr7c0ERUvOiLIGEjFyxUnL1eUD/dC+ZidlUfFrMoXW5bT0/422wGBvGk7IAzMaIxonJjdQ1Mjm3nkvNDQ0YCtdkD4OKENk4mQ+DgFSUA++Di1bUBbVn/X6IBkDQHiG3V2mM2KdgTsMWtF+YAFTIQgDzAX+FNZIw+rZZTbIdSqegHmALQPYS6TVfhmOyDRwSN9dKbofIA9ZqgiYKAVWkM9Oey6h7KAlEOjoNUG2pWHrLLGvh4gBOhbsEUBNGnYjwjfN8gM/sUS8/vvv5+3aSz5feedd7go0CxAs4EOHP0G4oPoYy8nEWBiEUsxkZYIIP5aTYc8CEGbgsEK/QI2rxTLdMVMVdYqiDRh6jH6Lj0Z+/ghazkESUJ09DtCU3DqqafyFOTNMUFg0Edi8uRLuySyFhpuGQ8fYvFHaNdyH4t7MKOL/IRc+DZBHs3IYZRnIHkJ4oj+gfl/cJOH1aXhaBPCKiBkw3Jt1D+CbMrBPiwgtTIpxaQCkxVop9APM98QbjaXTdwwvwvNHdKUNewgpnr7nyAexgXRBnFStl77k5eaC/kj/W9ISYps60UHLNRK2OQHAyU6cIAqq8QACJi8CLKtHffQ+coVhHuwBSN9kBvsewECE66K9wjKfsgDLz4y0UGjkxPB7CZ2crrit5M7oEA+Tr0ymrkXSAckyALaCfYKQfsQGhUzeSJOIGWEJgS2bczKMPBhjwUMmBiI0F4xq8E+FIKYozOTibPZDgidi7CHQ52PM7K0ZgnRUZotb6DxtH5Igabj6z3UBQYxMQuEhsLXSenwh2COrdyki+8ShO2HH37gGkBoLvUCVN/w/5CJHeoT94EtyI3WZw5aB+zbgkkXNnkUZ5BhYMHEBQOOCHoaIKGx0ZPH7D0MrsAFAxIwgolB+FRgYBLtAOWACRL+etBGYqbOVkmRrL2DzJhgwMcGgydImUzmgQPiGE06ZDKJti+TbhBEmZBj4iQGTkx0rJKUYPPCBnRDhw7lExi4DaDuZe0nJpvAAZp+kFmMRTDHyt8ojhxAGYVZHRNo2byXnZ3taXsYqxAwFrKl2yTM82Jir1ff0IQKlwbxXNZ0od7lCYucBvo80e5xH+VEG4B5EW0AJFEm2Xr5R+JeSEkKyAhmu7IqE4XU2zAI99FA4WcikxBscCMCGozcgYv76AhEBaMBgQiEq+LlSpMdytBRg4BhBiNslbD7+lP5y+np/XZSBxTsx6lXPqN7wXZA2JxLmIqwAR8OucSMWgSQGHQaaD/QeGDQx2zGjjL+97//5bMYBMzSZP8DubyYtcFZU87TbAeEQULu6ARBwbchHEy1s1gjrIO9D7MltKihDtB4YNAUzuH+8sNginrGIAtiiPYA/x+tih2kErNfTH6054mBXAJPmJaFk6w2X8yGQVJkR3sMTiI/DHAwRaJNw8wIEiB2qG7VqpU2OcvXmCWLiZ7Q4IpEcC0TCvS3yB/tBSQOf+inEAc+XVpsMEBiAGarU7jTK8giymYUQNigtcLgLRw8heZLix8IH+TDQbN6BM4oD3E/2LxAUtBXw3cNJAn1jzEMdYRJp7wwAHmineCbhQZqypQpvD2Ibwz4gwSDBGpNMMAcdSSbZTGBBz7QgmrHR+T/n//8h/uz6W0uiH4MWmQEreO/jBk0hdDIQMMqzOJIE5MmBPGv/I4jfodjCRFzBnUxtTPffwAbZmGpGBus+bJPNpt1YZ0+lkDJa/GFXNgfA3FZRfncpIt9MDwONqwRgXVIrk8//VR3IzMs22IqTr52Xy/Iy8b01pzrvYN78p4DkEf8oayBbEanzUdexy+nj99Ydi0HpoWqsnkY5MPeIMBd+z6wRhDLAlFPTAWqFcFzzbbB5mkgPRGwyRT2fNDDFeUHDthgyGrAsl3kxfxbPK9i2SkbZHSXP4ol6Kh/EZiGwavMwACyY+mlaGMCE+yBgWBXGbHBEzYP1GKOfLFvh1HbsNoOsawTS1ixoRuWObPOjeeJf8MVGDHieWJviHAELBHFvklYTotl5thPCftyYBklcMVeItgsTd5wS5YLyzvxreCPDY62iMy0DqbTkb9pvb2iTCd0JCI2AZSXD6MusARd3mdKThP9Lr4BbduUr/HdYkkz+lQEZlLjG5AZYSqnj/1+rASkHWgINi/sF8K0KT6xwDeLfUSAswiQWV6m7U9+LPU2io8yoC/GUmJ5OwJfaWJJsnY/H1/xxTP0F6Ke8c04MYRlW/xg2RhmQGDWvrbohV0fy2qhMoSKTRvwHJoNzKTA/I3sdvJ7YntizMLNBmhOMAsTM1mo07BFNpaa4newATjAyVZWbYMNY1mjnpYGNmM2YHkdS6CVAXJBzYlZAdg21Jpg2vDfwEzCV0BczAjl2b+v+FAZQztgNr6cFupQq173lRdkwwoyOWD2zTZY8vUanxFhNixmfnaWEXZvrOCCPwBm6ZiZ+8MikHaIAmIWDCdABMxQMfsNR4AjKTQpWLGk9dkIR/7RlgdMQfAJgXkDDpp2BDbYcI0AZuvwczHjXwaNCjRA0BrgO0X7hwkAGgOrphc7yhDJNKDtQh8IJ16MP9BgwG8J4wv8SMz4r0VSfrN5w9wGdwvUMZvQmX0trPGigqSEFREbMsOghqWy8MlB5dvdoFUHFFwlwYkW9noQPZA4dOCw48I2i/N7ZLt5cDlF9m2cAwIncwR0RHr7gYRCQkVSrKEK8wb8lTDZ0JrGraWkYisEzCMA/xph4oG7hLxKzXwqoY8ZUp+U0IvvzBwwe8feL6EK0HaY2ZtAzh8DcDweY69XBxisYX+O5YAVLlj6jQBHyXARlFjGNNiyYaUG/A3gcyc0G5hwiE0H9TTAweap3lcIGCEAPxoRunTpYhQt4vcVSYl4FSgBFAL2IwAHSOF8GC4zj/2liJ0UYTYQq8mgXcUAAdMlNj0U9RSO5eGxg6gqSTAIwIQlHOph3jZanRVMHna9G9LN3OwSUqWjEFAIWENArCCCv5HeHkHWUrMWW2j5rO4Eay2X6Iot75GD5ejYBA7qdnl5qtF269FVUiVtNCAgH5Pha5daJ5RFaVKcUAtKBoWAjQhg8BPLGLEE2W6fKH+iwlkWBCVUG7n5y9+Jz7E/BTZ2ExsdYnkq/kQAaQl3PTkRJyVT6BGA0z7OKUKIxCTGagmVJsUqYiq+QsDhCGCvBREiZepRBMW7kcAZG87aWPGkDfBPwW7cKigEwoEASIo4xgR+UE4nx4qkhKNVqDwUAmFEQD5AzNfmTmEUSWXFEAAZgZYJJ7nLS3pxsJ72ZGEFmEIgVAhg6wOc7IxgdQFGqGTyla4y9/hCRz1TCEQhAtgXA+e0YI8bf3uwRGHxol5k1Au258eeKNj7SfmiRH2VRl0BcKgl9lEKt79aIECpfVICQU29oxBwMALYSBCHJ2KLdbEhnYPFVaIpBBQCCgFDBBRJMYRGPVAIKAQUAgoBhYBCIJIIKJ+USKKv8lYIKAQUAgoBhYBCwBABRVIMoVEPFAIKgUAQgD8MjnzHvyooBBQCCoFgEFAkJRj01LsKAYVAFQRwuCCC+LdKBHVDIaAQUAiYRECRFJNAqWgKAYWANQSWLVtm7QUVWyGgEFAIaBBQJEU1CYWAQkAhoBBQCCgEHImAIimOrBYllEJAIaAQUAgoBBQCiqSoNqAQUAgoBBQCCgGFgCMRUCTFkdWihFIIKAQUAgoBhYBCQJEU1QYUAgoBhYBCQCGgEHAkAursHkdWixJKIRC9CLRt25bGjBkTFYeXhQNlq/vFhGLpdrhWWkXywDq0u1AEdaJ3KFA1n6baFt88ViqmQkAhYBIBDMyx0LkLggHShRAKAmESUhUtyhGQSZQgc7gXC99JKKtGkZRQoqvSVggoBKISAZATEBNFSqKy+qJO6AEDBnCZBw4cGHWyh1pgRVJCiPDCP/Mtpb5o035L8YONPH+TNfnM5HdxkxpmooUkTvsmuUGne8FJkZM/aOFVAkEjoEdOxAxYDCTIJNKzX6smpKCBieEEwlmXqDdBfGGC0yPBaGeKrBxtcIqkHMFCEIph87YYfo7zLJIOw4TUg7hEoCMjQILEgVApQuSsZjB69GiuPUEAMYFKXqnjnVVHsSgN2h2CaHuijIqsuJGIW5ICUgLNBbQJsUI+MAiGMshaEju0MLGCezCYC+LyWKdGwSSj3g0SgZ49e3pmtWpwCBJM9XrACGgJi2qLRHFHUkBOoC3RDpBigH+io/dgYWa2q2fW8We68TfIa+ULuNXH+ItWiJkZU5QZk5GZNgHYRbuQ28LguVsNa2R4pxNJkRVDeEL2QGhQoDXBoBBO9X/ICqUSjmoEtFq9Dz74IKrLE4zwcUFS9IhJx7pJ9NDWbzh255XvoZIVq4PBUffdtLNbed0PRR7IYHmNhrr5R9vNc/K3hUxk1EXK2Wfy9FPPOpOSzz4rZHmZSXjEXLdZUY+0KLJiBkF74siDwbZtoWt/9khrLZXyFSsNX4h0+zcUTD3wQkAm0PFKVGKepGAwkAcCzLwf+nU6tVr6tfocIoSAlryZFcNukpd9z+2UefedZrMPaTxtO0Vm0UxWhNrayQ6AMkGJFrU6iEfhmxNDMqly0vcQ0o9NJ3HgKhM3XwRP5/WQTnpEO42WNqqHTzD3Ynozt07jVnnMOiAnMOWc/vxjng8cg2XW3XeEtIEFUznqXfsQQKdTuvJnKnhjkidR8dsJRAVmHvzJZEWQ62gzAYkVMqHaXMu+VuFOyVfnj3aTd2c/v1maJd5aol1zwlhL/Y+WoJjN16gAsjz4HuzUMgpChby15TaSx8x9kCkEu77bA3fea6t8kE1obu2QEUQfK4HgWBuPjtwxqUmBeedCRlBEEDNS0RjRgKpPeN3M96DixCACRW9O8CIrVgeKcEAikxUQ7Ln3tQ5HtrbkAZLSo0cPnpZTTShmzTzatmILQFIiVrUXog+z+p4/uUU57Uw3FIO/XA47vlsr9WsBsw/kAAAgAElEQVSGEGrJmF1jjfimQFLizewTc5oUrdp8Aevc4eiIxigakCIo/rqs2H4uZjdCk4LZafUI+6hoERfaE2hT4EQNrWA0ERVteZx6DS2Kr1C24mf+2GhANGsW0PqAWBkcZflEH2bHDF1OFxoUoknEy3u3L0SsP7OT+CB3gR00o1pcrUon6tduGYUGTvjBWZVLGx/O3CAo2FcFhCWenLtj6oBBaFBk/xNBUFDhcmPUNgB1HX8IoJMXMyO7OhK7UQRRgRYQAURFONvanU88pqfdk8IIA0EKjAZD3Dfzp03fTQqO9kva57FwHVpCZQ92oZJR1J8Yd+yoT0GozbZdO/J0QhoxRVLkjdjQuestFRWdgxPAVzJEFgGnkhMZFRAVkG0EEHC95e6RRTH6chdOvZDcyY690Yds9ElsxoTjlFLFk/ZExjxmSApmmWJvEb1VEf5mRE5piEoOhYAWAZBtoVGBr5UiKlqEArv2Z+oJLNXofisaiLudCGt9SOxMOxRpySafUKTvxDRjwidF64cSztUQlf/8Q65DBZTUvJkT61fJFCMIoE2L3ZGhMZx7UvQ40jqtCrBSwinBKinAzB8Dq5EvDPw0jIIvLbKv94zSi9R9IatV7CIlr8o3OARigqTIEAjVeHCw6L9dtnARHXrpZcr9ZBolJLuhK5r0DpX8sJhqfTtb/yV1VyFgEwJYQj/vT/eyemhT9MyZNmUV08noHepmVGBBCuCsKQZ5I/8UozRwX0sqAiUF2DKhZEU/U8uiq8pzdPl91Wf23xHY/du6LcEx1RdJ0stdxkh+Vzi8B+vkK9eJXL96sli9F2j9+ssH50mh/eIvXsw/MUFShLOskR+KtoPw1xCMnrsOHqTybUxzwv5NqFmTR6vM20+Jx9Y1ekXdVwjYhoAw+6C9O1mbgs4TphSn75NiRj5BCtwDY3gHeb2GA4KEAR8DNDQJwjFTmC3WNEiiM/6u0Hu1yj3ZHwNp2blHCjIT2OF38PhVxT5YTQqwFEQqePmqwMtvBCujfqrxdTfqSUpYVzxkZVVpHeV/b6eU5idXue+5UcE6jKQk4+dOfVJa6iZjtWt7S1hZSRW/r6eyNWuo7Nff2Ed4FqVff93ROMXFVL7mFypbvYbKN2+mzJ49KKm19/EAdhS5ct8+SszOZrsmpdmRXNSkAbOPWJbsZG1KrDikGpECowYj+zj4csoMhhTw5cdimbC0XPiVVVNo8GorZ7z8Td2OPfVIUTYR7WV/cz72FO3Lnb/x38Nb9aT+rW82KrLhfYGdiGDHShcx6NtFqLAdBbQoTpZRBhjEOt5W90Q9SZG1KKH2RYEGBSGxenV3u3G52EC8jTKv6sqvy5Yspcrduyntmqv5tSs/n/Zc0oVqz55OifXqud8R/z98mCgjg19VbNxIiY0aeUxI4t2ypcuo4q+/2bt1Ke3KK1jGbj/nssU/UtIJDSiREYiCl0ZT5d59VO354eYHbEZACOYqll7l9u2UkJNDCdWqeeQr++57OvjsSKrIy6eUZk2p+riXKTE3l/neHKID/QdR6Wp355XcuCElHX+8572K9Rso//4B/L3ErExKql+PKvfvJy+KxkhO+brfqWz5ckpg+ade0J4SGzf2wsa1h52lNO9rjnNKp46UkJLieQ4ZCoYNp8Pz5vN71R8ZQGmMCAUSEhISAnkt4u9AY+h0bUrEQTIhgFl1uREpMJFF2KJYJyhu0QQR8SUoiE+bY0+nc+ud7iua7jOv/Vxs3n9FN8MAbhrJ+NOuX2j06qlkBiPvbP92X/76BdGv3k9A+ALFMoCixcQrUU1SwqpFYdVdsX0HH3zLf1tLroICqtjEZh4sJJ3s1qQUf/IZlW7Y6CEp5WvX8ecVW7ZyklIydRoltWjBrrfQgaefp9zXRpGLEYb8gY9S5rVXUPb/nuDxy5nzW/6DD/PfqWe0pLIPN5KLDfbpt97C7xVOfJtST2Xp7N1Lh+d8x++lzZ1HaVd147/1QvnyFTzfZKbV2Nf9Fsrp+x9Ku7ob5fXqQwnZWVRrzgz+GgjQ/ocGU+Y1XSm9cyc6MHgolXw2nTL63k4lLA8QFJCT3LfHexEbvFv09jucoGRe1Zmyhw7xkCqPPKysh4YM5QQjpWljnm/h5GmU+9EUSqxVi0cr/2k55Q96lCoLi/h1DiN9pUuXU9ZdfSmZbTgFklS+cTPVGDWCyletpgPPj6E6IIXp6Z5szP5IOTM6nU/dJzW7N3kzW1YVzz4ExOCFFDGAHdVG6OdhZZALVGuxZLd74lBw20x9IQK8K8jP0p2/BERSjLKVCYA//IzSkO8DYzsJQKCkT8ikLZNoA1zTxf6+6zLcVjzNYBStcaKapMig+9KiBOLopq1Q14EDVPT+R3zwzOvjPSVIangCj162aQsjFUfUp0xjUPD6eH4/4YjGpJTZkRM2b6GS7xfy+6Xzf6DCjxnbZgHOt9lMM+NixAMEJZV58VcbMYyxlFTad/UNVDDhXUq7qRfXKrjKyqhgykf8veqPDqSiz2dSOTPB+CIp0NYUfTmbkhYu5u+VsfjFCxa7yQArU8XWrZTUoAEdemE0f57CyEzZunWcdCQ3c69cSmfaHGhBiqbPorzuN1POwH6UevllHjKS1e8+qtizj4pmzCGYwbIH9qfk04Q6mZGYN8ZzgpI7bjSltG1DpV/NpvzHn6bSOXMpvfdNnPjl3d2fE8Fa095h5K8p1/QcGjuB0q/cwfx/8jhJyrjsIkooL6eSn1dTSstTAiIoHIOfjx6dwAsdJQG+KdgqH0vunWzyiRI4LYvZYfZgr3eskBB/mQWqtbBTBllGzPoxqIIE9fcnvMnnWgJgl+yCANhB1ATp0yONIFgIgWiWtGU3CVlcR4tqkoIlmQhiDwl/NenLRuzvXZhHQFAwgGZc3ZWSTzmZD9iFH0731iiUlvGkSmbOorK1G/hvF0w7R0LRp19SUs0a/AoEBYNs9q030/7/DiGYOUBckE/Os09zc1DxJ58yDc4uHr+cmX9SmHmkcudufp3d5yZK69GdKpkJpHj+QqrqMcOjeULZ+o0E6VCG4h+X839rTp5AebfcSRV/bGSjdhl3DM68vhsVvvs+M1cdoOzbenNCwQPTVkDbk9m7FxWOe5PyHx1Kya9PoJyHHuRyJTKSU2PSeK6NKRj7Bk83vd05lD3oQW7OKvpoOtfgID2QvoLxbme4wzPncJJStsBN3nL+O4CSmjHywQK0NwgpLVtQ4YS3uPkJ4cBTI7hGJ2fwI/w6XoOTHWhjvU58DWBy2c0OZvEygAkCYKRNECTAX/vR4tprzqNcs4X3tc/8paV9LoiTni9OMGkL0gcz0rTO1s1nVlamacsUrddRTVLE5m1mwQ9m454E5jSLQT3tkvaU9fBDPEu+DBkkhWk7EFJOa0GHZ86jxJEvUuG0T6nagHvp4JjXqRwOpmKgZ/FyHhlE+Y/8j6dXY9RIlpDbNwJmIe4rwsLh8ROZFiOPp5fzwF1UOGkKFTPik9L+fI+vSOYD9/O4yc2bU9lrE8lVWEiQ01fI6n4NVezazbQoS6j6C89yTUdyw+OZb80W5ufi1ggl1T+Waj7hPVvkaTJzTTEzWaVdew3lvDSSMv/4g5OV/f0f5mQnISebyn/5lVK7dKbcqW2pbNFiOjRmLOXdehczJ7k1Roe/+d5t5nmPqT2ZVij7rj6MrDAzEdP0wBSFcGjkGCplRKd8+05O9EDqEps0YSytgiqYhqbGG69SjvAL8lXYGH4mliPHcBEdXzSnDWCOB+yIgIIAGA32Rvf9lW9gq5sYSRnM/UgCIQD+0lfPI4NA1JIUeddNt40+9AAmndiAUqWVKonHHcczhaYERCVr4IPMcZY5ff64jHJfGEYpl3agsj83sZUwvxBcZBNr16L09udRasfLKZvdT23XlhLq1OFpZHS8mGlMtlNa1y6U9vV3VDD5A0qqewxVe6gfpd/cmxGaLDrw3GjKebKYcu7tS6nnt/OYWZJbncHjVu7YQUlN3ZoGLRoJzOcDg33m/fdyB9+0iy7wEKesm7pTKZMR2ovs3jfSoVfHuzeoa3Qi96cpWb6SUk5qTNlDHqdCRi4KJk6mjK6Xcz8SlAmh9Pv5zNx0JR0YOpySmIYko8NFbA1iFiXXq0PFzLkYK36qPTOE+Zs8RgdffoMyQPYGPEAJzCH38BezqOS7+fzo9ZrvvEmH332PE5TkunU4SUm75AJO5LIe7EclN91G+fc8QJk3XkvEVhJB7tI1ayl37ChKPOkkbbFj9lrskWKVqIcLEByChllfrKzyCRduTs2nbd2jZls7ZNT6bNiRpkojNhGIWpKyaNN+T41Y2dQKe6YE6qOSO+Udr1YALUTScfXIxfxPoAtJZHunVB8/zitOzlND+QoXhKzHmGmC+Z0gZN53j3e859jqHAQ2GFd//VW+MoivuDmyogdmnWOw1JdpWjLuusPrXWhPas1mmgofq1VS2SqZWkf8R/BbDmndb6S0G67ntzIHDeDEAxqPsnemcnNU2jlsmXH3G/hS6ty336SidyYzTcyPVMEIGZ5n9bqeMm6HA2421Rz/KhVNmUpFn33J04N2Kaf/3ZQCUsVCnWU/cGdhxBWh1lefe3BJPuN0yhn1gvsRW759+Oz2lHJqS36dyDQ9uRPHMd+gqXRo1FhKSEvlPkDZd9/OzUlWg+tIXVh9zynxneyX0qOHe8UVlkyaXUXjFFwjLUcghACDPjQUMBlxk4JNAQ6zCHb6pNgkWlQnE0gdo8BO2i05XBUQtSRFAGTWHyUkgDICkTv+Nb481zCwOGLlCicRRkRCcz+hhttvRU5X7HKrm5dRunLkI4RH933xjP2b3udW/qcXQBTgl3KUYnjHSj7nbKrG/gwD0zgJ85gnjoFclf/+y6MIx138hrYn55mnKMcwg/h5cHETt/Ns/JRYldQIAQx6ICnCedQoXqD3Ax1UjfKzy1lWL307ZBWkD+kLHxmZsOnlK9/TyiCIo0jD3/vq+VEEopakCKdZq5UZqBbFKJ/E+vWNHqn7ASBQ8OTTVLlnL1VjPi8wESEkNvHeRyWAZGP6FWgVrWgTYxoMP4WDGSrY4E9rYcanQs85FL4UgQY9/xjhoGqUpkwUjMwvGGy5FiWAzdyM8vWHn9F7/u6HggBkv32lv2x1n1chYZY22dNNMm5vRi1JsVpj8sFcdhMVq7Ko+MYIVOzYxXxgVlHFLX0JvzM6XOC1mZvxm+qJQiA8CIRaaxGouUZLJOxaMmxXOqJ2hINrqLQ+drQCyEjkJo1arUiw6QezmZta3RMs+hF436zTrDhHovDNiVSdbeWugjMRqP7KKDo85X06xFYrIWT2uzdkgoqDykKWQYgTFpu6hTibmE0eWpVA/GVABvAH/w8EfxoLLYCYZetpLjAYmhnA4FeHfiyY1YpamXCNiRy2nffagVUvYpD3oGnC8mNojmQCYBVHWQyRjhn8zIgPGZ28QiiefFPiRpMitCf4sHFWQ6g/RDMfgoqjgwDbiyXjjr6Uxpx7XWz1TlIADrE6qVa5JZ/XUeWhuqEQ8IMAiMJ91JzHuq+2+1/5lVBqa3HCLvoxoR32I6rpx0gTf3adi+MrYz0SYLfGxlf+8jP0BfKEJaj9tI4kLBPImhPGBrxYw2wZYjle1JMUK7Z4nB6KxigapCIqzm3a2BhOBXMIwD/rMXNRVawAEMAghsPx7NRcBKO1EAf14XA8O4MYrEGC7CRZB+50a0Ot4OeLKCAd9OV29d9ajaoVOc3gr7T3ZlAyjhP1JMW4aFWfoFGLzkYRlar4xMsdeeZkZ2cXL/jFUzm1s2y7yi60FuiPrJINuwdRUSZoUIgm8T7Sc8pykAUGfoHI6+8dMdm0U0tRZ9WSKqWFxsxfMCJ0ou2Ik5v9paOe6yMQtSQl0E2s0CGA2eMjMEtUzDRUAS9mIYEEO44xDyTfcL0TzIfq7jx9S2rUUchv6dnyzaTtO+fIPbWiRQy3lAMGDOB7OgTi8xFuWX3lJ/oIfwOYmfYn5xMq8uOrLJF4Jvo1PfyCkSdUWh+tTFbrVX4/FKRPK188XEctSQmmckBUsO38odff8jL/BJOmetc3Av5mRr7fdp/x4zuO9ad2zsKs5x7bb8TDTrN2DGDBkPdoaEHBfffGJVQEwBibWHsSlyQFlYhdW/EXCntzrDWSWCqP8AUIh3NgqHGTj4YIdV4qfYWAQkAhEAkE4pakCLC589XdwUNvxSQUSG6BmpECySvU79hlYglmJhvqMqr0FQKhQkCs6sEES/6W9L6HQPqlUGk/QoWH09ONdW1ZqPGPe5JiF8B6HYRdaSOdQNPX29nSTrmW7fo1gOTWB/COziurraUjn9UT6IZZOlJ4bpnZadTofVFPwaRhlLa6r48ANsaKtM9MIE6qGPSO+tTZbwr1tbJGH8nI3bWDABiRPqOJIerMKF+ZNBq9Hzm0ojNnRVIcWG8YsOQtsqtssexAmaNOJAdvUz28VU8Op3YH0ajDOIYE1motjIpmNJnQajSwLDXQoF16a4fTPQZdkY7V1Ua+yiEIABYrYENNo6Ad0P1pW7XxjdI1c19s9Ol2kjZH+oy1TVXf19aXGZlUnKMIKJLioNaAHSz5VtFxELrVs/fo92iD7MtdvxmKLNqAXbtnGmakHvhFQAyyVgYwv4lKEYxm5P7S8Br4LJqrDbWrV5/nzpZNkhDs1OphUC9Z0c9fsaTnVQd7vZftIAAgllh9BCIqQqDET65PpOGLmOmVR92rioAiKVUxicgdLUEZ3rontWFbM9vZUUSkYCpTUwhg4FjK/pawLdMFgekwezAV3DbT8H0cLOjkEOi28+EqU9u2bf1mJbYsQERZ2+DvxVU1ig2jJJ3clCr+2MifpzWrQf6lMEzK6wHaENqM3QFb+GPb+UA0e8BPLE7QDuC+5PRH3nyZXHyl6+tZMMRPN12L5FE3DXWTFElxQCNA5yJrUHCuhSInDqiYMIqA+sZf/1ZEr6xmGrVVbo0a2kY0toXRo0fTmDFj6MMPP4y430ew1ehl/pAGnl5zHqXATLF7iFockWrzu0T404RA+gBxCrA4ZVibZqDXKCP+AtXs6S5OCHYAD/Z9P2BoJ41+olt+HEj9Ws4kRl5QJMUBFSkfMQ4NSjQOSg6AMWZE6N/qZg9JgW+Skw86MwJdHIDmBOdUIxmDuY9BLDCCYi5X9AlW+wFxQN+0zs+Zy8RkLDFgByKTryxkkqd34KLRu75wD0brI+cXarN7tH7XRnUSyvuKpIQSXZNpy6d/YoBSQSEAnx2Yfew+Jl4haw8C4pu1e0YczAze1+AdTKn5SjjmK4cy23UIoJbk2SV7sFofLU5wYg/EzKVNR1wLk5xd5TXKJ5buK5LioNqEFkUFhYBCwPkIiEHGqrbDX8lCQQj85RmJ54LkGflcyc69VjC22y/HToIi42xFcxSJ+nFSnolOEiZeZREdXqS1KJWuSnp77XT6Y/+2eK0Kx5S7LXNWVEEhEKsI+NMkCB8tKwRFxkrewiFWMYyXcimSEi81baKci3b8TA/89BZ9tHGuJ3ZR2WH++9+ifbRo+8+0bOcaWrB9hYnUVBSFgEJAIaAQUAgEh4Ay9wSHX0y9PWvLQl6e3LQc/u/m/L/pnC/up4yEJMqvKPMq69QLB9FVTTrEVPlVYRQCTkEgEF8ksaoH/h7+dlT2p6Ew3EvFKQBFuRyB1G+UFzlg8RVJCRi62Hpxd9Feem3jt7xQgqTUzKhBXeqdxq6z6e0ti+n83BPonlOvp1oZ1antsWytrAohQwB75BD53thv/qb8kOWvEvaNgBVC4Dsl76fySj8r7yEuBj6YUfjKlBBsChlNA6tdspohfEb1JNelII3KDGWElvF9RVKMsYmrJw8tHO0pb3ZKJv9dg2lUpnR6lkoqSjlJuaHJJXTtSZfajsuB0gKqqKygmunVvdKGqWnJztW0aMdqWpu3hfqd0Z0uPO5sTxx/z+0SFASuWmo2ZSSn25VkzKczYMAAwvLjWA+hIgSB4ObLyVNeQWglbTHYB7pHilFeoSZ5wa5Ewqoe1K1t9ashjf40XUa4YQPCePiu5PIrkmLUGuLo/icb59HnO9bQc61vokdXTaWEBG9XpX2H3TP2k3NPtIxKYVkRZR0hPb/s2UDNazWhlER3s6t0ueiZZW/QC7/P4ulew5Y6Tuk8nP9e9e866jbncW5mSktMpBPSq5GQw8xzxEH6K9myye/+XkaJrExXNLqIWrD85bB6z3qasWk+tT+uNXVocGRb8CMR8ksO0l3fDqOvdq/jd4a37sU2W+vt9X6oLrD7bDQHHNy3bZvzHLDtOlAQe5Fglo3BEAO5lgT4cgw1Wtkhp+OLcPhqF0bv2bV02FfeVp45XeujxVFbv9qymtXcgPSAAPkzt2nTj+drRVLiufZZ2Tfs30p9Fr1CPRqcRT1O6cxJSlpSihcq2wt28+sm1RuYQuvlVe/RWXVa0vr9W2jA8rfpk0seYdqYMuq9YBT1bHA2TbzsSZ7OkCVj6eUNc+kZpiGpk1GT7l76BnfObX/cmfT8ync5QbmR/X7r8ic5yZCDv+fQ/tw6bwjN3LWWmmbWoOrJmfTyui9pxfXjqV7WMTypl1a+Q0N/+YT/Hvn7TJp0/gM0gsn+1ZWjqW5mLeo2cxCtK/iX3rtgAC1m2pzBq6bRHS2vo8yUDC9Z1EV8IoCBTAz+dpEAq+ng4D5x2J3R6cXGh+EZ11v2PbeTHefiGOXgjwT4InlI04joDWx1E8/SDhIgy2i1XsyW2yieun8UAUVS4rg1QMtx45zB1JhpKV5sP4hWMa0CwozNP1DLWifRcdl1+fU/R0hK/SPX/iCbz4jG73lbaSb7F+GLzfPpvW3L+O85TGPjYv9tPbCdExTk3SCnHs3asog/b1azEf93WNv7aRfTYnzM0tjy2T00ot39zA/mDP7MzPOhS8ZxgvJZh8eoY8Pz6b3fv6R7l75J0zbMpoFn3kI//LOcE5TTc+rQF11fZNqeDJq55QfaWJRPB0sL+fNVB3dR5zrNqJyZohawjdVaZNVWBMVTA9H/IxCtikwK7Eag5oSxZHSKsl5eOBNHJiCBkBG9dHEPByriJGIr8hilJe5rCdWt0gvyb9x+g45OiPTL9QN/G2QKwQ5ChZOqxenU+nnyrCwHkEecRWSHjJYzj4EXFElxSCUazQxCJR6IQt9vnqLNxQd5Fg2mHTVjLGamlkOlRZ6stx7cwbURiQkJpsWZ8tcyqnFEIwOCggH+4Va96LbFr9IOpp2Ys3URN+OcX7c5DVjyOlVj/h7j295DtTNyeR4n1TiB5jOtx5ytC2nITxPpcmb6aV+zIb3UfiAnUL6eN6/ZhCZs+o76n9yRE5S9h/czDclUnu7UP7/lJOX9DV/x63cvG0rHZNakUqa1eXf9LC5T0xoNmZZnHDXPqsXj3LPkNTqFyf/ahf/Hr1WITwS0pMAIBVmjYWWwK135syVSIE7q1Wo9MNhaCVoigvfz7uxHVuXxlacWOyu4+ErXfTo12UKoUF675JJlRpoiXUVUfNWm/jNFUvRxiem7cFLtN3841zRcfkxTasZ8TdqwVTwY+M+bMYC6ndCGazSgaYHj6mTms/IXIzM3M63LbjbgZ6ekM5PNUKqVXsMnTqPa3E23Lx7LB/7pXZ/3mGzW522mcrZxXEllJfU+5Qp6vcOQKunAVLSEmVh6N7uSOp3YnmYy7c7jy8bThcwEs7nXVNpZuMfw+aZe7/P0Pt+2hKqlZdHYdTOZH0wSDWrWmUatn0Pwjbm8QRua+tdy6jrrYTqPkZ7Fe/+gPWXF3LwEMlbuqqDNrKxzrnrZbzmrCK9uxCQCghTUWWWvQzAGcDHYWgHOaODTkg4raYYqrh6h0pIpkAQRoMXRC9qyCezsIFR6MgoZIKs2bz359O4J0qf3LNB7553n7T8XaDrR8J4iKdFQSzbLOIb5XUC78cq5t9PtzMdChOLyEv7zN7aSBuEJpkGYsMmtVsU1BvLTqh9P7RihyfSx0qUe00xcVKsRdT+5M/2690/q1LCdx3TUtW4L2nzgH+rb8lqa9uc31PPbZ+jBFt34SqKV/66nBcxJddDpN3C/FGwsN3z1NLq6wbmUnZpJ9TNzuebnR2YCalSjgeHzJdtX0cTzH6T/sBVLw36dzonY8+cPoDrs/feYk+xnm76lJ9vcx806n23+njYX7KJGzAdlDzNBdWQEDeG5dv2p7YwHqPOMB+nO5lfS4fJiWsJMPsv2baIvO4+gU2s35fGcEOb9qZYih6MeQjHLhtzuAXkS8UEyxKf7hgMnvTz0CJV20Nde66WjvWcndnoyivwCkU0rqx31C3KiVvdokVXXMYdAtdQs0jsYLT05jZ5mBEEstf3fuXfRhfXPpLrM7FEtJcv0wDyuwxPEFtbw8Ey7fl74fcg0KggJ7L/Pu75AI1ZMovEb5lAeIwFnVjuOeja+iK4/6TLKZcuRZ1w2hEavep8tf17A3zmbEaQhp15DXRpdyK/9Pd/X6AJGLko4ARJhU++PmWyV/LLvqdfxPwT4oFzx9VPUmpmfEE7ObUhfd3mOxrBTiB/7+T2+od05NU+kx5nJSvjN8IgqGCKwdOlSCsTvwzBB9UAhoBCIOwSUJiXuqpzoztNuNCz1oLP6eJ6BKASyLwoIiJH7Cp6JUIdpL0Zf+DAd3aHFWywsCdYuC5Zj+HuelpTKViqleiXK/WoY4dAGsYLpZOaPIsKZdVrQ5I7DtFHVtQkERo8eTWPGjCHslzJw4EATb6gocK50UrBj5u+k8ihZohMBRVIcUm/+ltw5RMyYEQMbyF08/R7qfPw5NIKZhhYwExF21NUudY6ZAkeoIMuWuVd1RSj7qMrWKimAgy5MFPDLMPLhCAQA2TckkPcj8Y7TCF4kMIjVPBVJcUDNit0XHSBK3IhQXlnOnYFf/eNr5muyllawFUzYzE4FhYA/BOwmBWLZq8UDLbQAACAASURBVNWBNuvuOxhJ6XfE6XaSP7EtP7cqj5kMsAwZcvsKeiTJiISJuFYJnq/8rdavkMGfjL7yNPsMO85CQxlPQZEUJ9T2Ef8NJ4gSLzJgZdKv10+k/y5+me+2i/1abmfOvCooBIwQEJoL90oce0kB0ra6PBXOnFh+jAFaJhRilYpeOVbVKNa7ze8lnex2Bj/9p7/5tdGga5iAjwcCO/dyXG8/NR+vSY98420HoQq+fkMvY7w5zaIBKJJi7gsJSyycPGrHTolhETYGMqmfXYefTfTjjlXUmDnlqp1kY6BSTRQh0PNPqk94nZtWBCnwRQZMiMGjiMHVKkER6fP3NCuCfrr6F+owe7BZEaR4e9y/2x259etQol+PPobGF9u/a3eLNZOR3djJpMSuTeeEjGbKYzWOXTJazTcW4iuS4oBabHfsafQlW946mm04Nq3L6Q6QKL5EaFe/dXwVWJWWIxDI6iMvUuDQ5cLi9F27zcjwmxO+c4EQlWjAzgxZxGTSbLB70hmPPl6KpJhtbSGMdx7bd4RoGicq2W9fyQ6y68kOsrs5hDmqpJ2MADrBwas+4CIGMhg4uWyxKBvqS9ZcWNk92p/DPA6js9oGxGF4OARRBCsDK97RG1y15bSrLtHn2R1QBzjHR68cgeSFso9m2xH4qy8raaNuEazUrzL3WEFYxbUNAXxI8qwHAxT+FFmxDeKoSEgMJGLAszLYRUUBY1RIrWnFzoEMp+YiWBnI9PK3a7CGLCBBdh24h5OkzQSz34Iou1vrM5gKbptpJnmfcSCjqAefES0+FGm2Yae/m6kfaP5EiCeNitKkWGxYoYoO1t+2LptBH+mUkI8gK3p5mv1o9d6N9ntmj0XXltPfceva+Fav9QYHq2nI8QMtZzB52vWuWIXg5O27MSu1c7M5KwOinmZDO1AFOjjabeaxq03opSO+Sb3NJfXim73Xa86jXOsBnLW4mk1DxBMyBqLV8pWXqF+Y58zIGI9aFOCnSIqvVhTGZ2ikoqHKg6nRwGd0P4wiRyyrWC57t3qnYjteW1XVkagoDP7btm2LRNZ+8xRbi0dyNmpmUMIMm6RJi9+CRWEE8S2bwcNK8TDp+3LnYDJLAHylLWS0os3ylZ54Juo3EM2Uk8m/mbJbiaNIihW0whAXH4JVVarerEwWVTjSWRE/1FoHK7JYiWtF+8A7CRPB7g7URJYqSggREFqeWJ2ZxjKJD2GzcHzS8bY/iqiQqCQpC4M8UC2YEy0j2ZK1p4YKWfxtpn0muc+jsSL7fbWtv2Mlfbvj2nEAmN0yqfSciYBs4glkhY8zS6WkimUEcMyEHOLpqImoJCmBNkbsdohg5jRTbOxjJphJy0w6Kk5oEMi5ty87UNBleaOs0EijUnUKAmKvFMxOP/jA7ZzqFNmClQP+HXDmDcWqmWBlU+8HhoCsRUHbjacQFyQFGoi8O63tchiv5MMsOdN+JIHs+JhgdArhkcRLl6/UZmP6WtTfodff4u9gl1CUDXKa2QvBdEYqYlQigIMPYe7BX7DaFOGoCkdI2YSoZyb0Z5qVwcSS10AC8hXLW/G+HaZbYUY1uxLFrNxG2Gnf92Wy1jPb+oqvTdvftT8ZzeSlJ6PZ+tVqUeLJHwV1k8BmmVG3KTvMPReOW8XblmvUJf7aGP3b+ijzxEAlzo4IxERgZHLxK0SYIwRStjCLGJbssEMognsrc3eW2Eo8FohKJ/YNzDti+jTzHYQF8CjKpGfPnpykYGYajDZFrCQJVdHtXvkSKjkDSTdUe68IWexYkRPp+m3Y8OjJ7CiXUx3SA6l/M+/EvCZFDFIAo+aEsRTs4B3s+2YqRcWxDwGZjGAbc2hYBGGJBaJiH1LxlxKICQYAEBXMVgO184vtA6CxgMbBn+YCjq3+thAQ6eBfPY1MrNSWVuvjr1z+sMX7wExoLuzADpviQUtmVL/CUdlfncplMyujVosCDWC8hZjXpAgtCnwTMu66I97qV5VXgwD8koQpqM6qJVGNj9M1KdBUQDUd6OAfjsqBqadHjx48KwwATpY1HHioPJyDAAgKfFHks6biTYuC2kh0TpXYL4lsmolCq5b9gKgUvY6JjxbTXTRWGwZ/aCicvmwSK33E7BSyameu0Yi9kjn6ERAERS5JPGpRUP6YJimyacbOY8ej/xOI3xKgTQTqHBy/qMV2yaE9kYkKTECKrMR2nTu1dCD30EDK5B5kP561fDFNUuSGqHxJnPpZKrkUApFHAERFXtqJQUKRlcjXS7xIIMgJTI/CmVuUPZ4JCjCIG5ISL41dldM/AmK5dOnKn/1HVjHiBgE40mpV6jJZUdqVuGkKYSuolpyIjMVuyPFOUIBHzK/uCVVrq/znH3IdKqCk5s1ClYVKVyGgEAgzAtCo4E/rEyDU7+JfaF3EfhXxtrkWqkQMouGsnlCctWTnniNm2oHWjGOEH9ICQbHzAEyjvJx+X5EUEzVUtnARHXrpZcr9ZBolJLshK5r0DpX8sJhqfTvbRAoqipMQwFJkFRQCvhAQ5h8MxhgctYMyrsU9pzsH+ypnvD/T1msweNjRDhQ5qVoDiqRUxaTKHdfBg1S+jWlO2L8JNWvy55V5+ynx2LpV4qobzkcgXncTdn7NOEtCzGLlmawZc0+gs307B0tnoRh70pjRmMillrU1eu1DmBiV1kS/rSiSoo+L992srCqxyv/eTinNT65y33OjooIoKcn4uVOflJa6yVjt2t4SVlZSxe/rqWzNGir79Te2vfxZlH79dUfjFBdT+ZpfqGz1GirfvJkye/agpNbmzj+yAkXlvn2UmJ1NlJZm5TUVVyEQNALRsIcKfBxU8I2AIgO+8XHaU0VSTNQINCgIidWru2OzkwTKN2+jzKu68uuyJUupcvduSrvman7tys+nPZd0odqzp1NivXrud8T/Dx8mysjgVxUbN1Jio0YeE5J4t2zpMqr462/2bl1Ku/IKlrHbv7ls8Y+UdEIDSmQEouCl0VS5dx9Ve364+QGbERCCuYqlV7l9OyXk5FBCtWoe+cq++54OPjuSKvLyKaVZU6o+7mVKzM1lvjeH6ED/QVS6+jceN7lxQ0o6/njPexXrN1D+/QP4e4lZmZRUvx5V7t9PXhSNkZzydb9T2fLllMDyT72gPSU2buxJg5d9zx4qmfc1xzmlU0dKSEnxPIcMBcOG0+F58/m96o8MoDRGhFRwJgJi/xGrs05nliZ6pFIDcPTUlZLUHAIxTVLs2qyrYvsOPviW/7aWXAUFVLFpE0c36WS3JqX4k8+odMNGD0kpX7uOP6/YspWTlJKp0yipRQt2vYUOPP085b42ilyMMOQPfJQyr72Csv/3BI9fzlab5D/4MP+dekZLKvtwI7nYYJ9+6y38XuHEtyn1VJbO3r10eM53/F7a3HmUdlU3/lsvlC9fwfNNZlqNfd1voZy+/6G0q7tRXq8+lJCdRbXmzOCvgQDtf2gwZV7TldI7d6IDg4dSyWfTKaPv7VTC8gBBATnJfXu8F7HBu0Vvv8MJSuZVnSl76BAPqfLIw8p6aMhQTjBSmjbm+RZOnka5H02hxFq1eLTyn5ZT/qBHqbKwiF/nMNJXunQ5Zd3Vl5LPOpOTpPKNm6nGqBFUvmo1HXh+DNUBKUxP92SjfjgLgWjQPDgLMSWNQkAhoEUgpkmKtrCBXLsOHKCi9z/ig2den7u9kkhqeAK/Ltu0hZGKU93PmMag4PXx/HfCEY1JKXPUTNi8hUq+X8jvl87/gQo//oL/hvNtNtPMuBjxAEFJZQcgVhsxjLGUVNp39Q1UMOFdSrupF9cquMrKqGDKR/y96o8OpKLPZ1I5M8H4IinQ1hR9OZuSFi7m75Wx+MULFrvJACtTxdatlNSgAR16YTR/nsLITNm6dZx0JDdzr1xKZ9ocaEGKps+ivO43U87AfpR6+WUeMpLV7z6q2LOPimbMIZjBsgf2p+TTjuDB0ix6YzwnKLnjRlNK2zZU+tVsyn/8aSqdM5fSe9/EiV/e3f05Eaw17R1G/ppyTc+hsRMo/codzP8nj5OkjMsuooTycir5eTWltDxFERReYyooBBQCCoHYRUDtk+Kvbpl5BAQFA2jWTTdQ9acGU1aPa/lbsqmESsv4vZKZs6hs7Qb+2wXTzpFQ9OmXnt8gKBhkc0c+w8kAzByl38/n+eQ8+zQ3BxVP/5wqtu/i98qZ+Qehcudu/m92n5sorUd3Sr/0Iir9da0nXaMfZes3UvGiZbwMxT8up4odu6jmZPfpwBV/bKQK5kMCx+DM67tR4bvvU9GUDyn7tt6cUPDAtBXQ9tT+ZAqltmxG+Y8OpbzrehBWPSEkMpJTY9J4yh37EitzMeXdcicdvL8/VULjxEhb0UfTuQYH6YH0FYyfxN87PHMO/7dsgZu85fx3ACU1Y+SDmYOgvUFIadmCSpgZCuYnhANPjeDmompPPMavgwlqF+Jg0FPvKgQUAgqB0CMQ0yTFjs26EpjTLAb3tEvaU9bDD3GtRcrpp/GaSWDaDoSU01rQ4W+YdmTki3Rg6HCqNuBefr+cOZjKIeeRQfwS6dUYNZKSW53Br2EW4r4iLBweP5GbRg4++yLlPHCXm1gw4kNM2yJ8RTIfuJ/HTW7enBMiV2Ehv/YVsrpfQ6lnufOr/sKzXNOR3PB45luzhQlQyV9Nqn8s1fz0A76sOrN/v6NmG2auKX7nXUpgvjA5L42kWh++S8knnkD7+z/MywhtTMmMLyn53HMod+q7lPvKC1S+61/Ku/UuchW5zTeHv/mep5F3XU9yFZdQ9l19COQJmh6YohAOjRxDhx55jPbf3IcOvTaRkmrWoMQmTRiQFVQBDQ0jJrUXfUs1Jk9ykxlfBfbxTG2L7wMc9cgQAbHxlplVPoaJqAcKAYWAJQRi2tzjnim7Z+2WUNFETjqxAaVKK1USjzuOx4CmBEQla+CDzHGWOX3+uIxyXxhGKZd2oLI/N7GVML8QXGQTa9ei9PbnUWrHyymb3U9t15YS6tThaWR0vJhpTLZTWtculPb1d1Qw+QNKqnsMVXuoH6Xf3JuRlCw68NxoynmymHCSc+r57TzkASQHcSt37KCkpm5Ng0Z0SmA+HxjsM++/lzv4pl10gUdDknVTdyplMkJ7kd37Rjr06nj3BnWNTuTEqWT5Sko5qTFlD3mcCt/7gAomTqaMrpdzPxKUCQEaoLSrruTkLIlpSDI6XETEZE6uV4eKmXMxVvxUe2YI8zd5jA6+/AZlgOwNeIASmEPu4S9mMS3JfMq8+06q+c6bdPjd96h8+05KrluHk6+0Sy5gTDCBsh7sRyU33Ub59zxAmTcyLRZbSQS5S9esZdqbUZR40knaYqtrhYDtCGAfDHl/FOVzYzvEcZegOIhTtSXjqk9gpwO7jB8788nCP/PpwnGruHCuUZcYCgnH2bw7mUaAhTqrlhjGs/yAmTD2XXU95b43ia9+0Q0sDla4cMdQQIy/I6t0vOIL+NlgjICVQdyMJMV1MT8MsYlclbzw/pF3qzwTN5gsunnjuXjG/i2e/B7TCH3PCQLMUWnnsGXG3W9g+8EcS5V//UVF70xmROwnqmCEDM9TTz+VMu+7hznCZhMcdIumTKXSlWt4rtAupZ57FmXc1sctBZY2sz/E9QTkDfm1S7XZ8u1/z25P1Yc+6nFGxgqiovenMr+eRZSQlsp9gFIvON/tj6N9/2gOur8O3HkvYa+UmhPGUjSf6dSJfQPz2LeAsOC+1nTBSTV0y6tu2oMABhScrSLChx9+qHYEtQfauExF3tVYbX9v3ASinqT465z/bd2Wl95WksLSg/YisX59Y2TVk4ARqNy5k/Z2vc7tRAsfFZtD0ZsTqOCNSZR9z+1cixOtwekkJRZnidrt8hVRidavJ7Jyy+0Iy/RxbpQK+gjEtE8Kihwq/wNFUPQbVKB3C558mjvbwpQDExFCYhPvfVQCTVu9FxkEoHWAiSSWNhiDWl4+hNCOrdAjUzsq10ghoNWgKILiuyZinqSI4tu1Z4pvONXTQBHAiiOsPNp/S186OGwk8225wGszt0DT9fVetK/uubiJMu/4qt9QPZOJCnxUevbsGaqsVLoxhgDaiiC2ysRjrnJjnqRk3X0HR6LwzYnmEFGxIoJA9VdGUc79d1AZ27ANy64z+7lXSIVCGHXAYChQja80xQGEKDWIilrxE1/1H0hpQVDEGU2KoJhHMOZJioACjpJKm2K+YYQ9JtuLJeOOvlR7xkdU66PJlMSOCwhFQBsQBwxGs9NsKLBRaVpDAGp6se0/ZseKqFjDL15ii6XriqAEVuMxvQQZkGAggl8KBiZoU6qzaxWciwA2hgtlEHvnwGlWBYVAsAhgRiwGH6HGV8tJg0U1dt5XK8KCr8u40KQIkw+IClb7YHUH/lRwDgLQcIRS04W0sfQYq3pAWqN5VY9zak1JggP9sMJHhFhzFFY1HDgCMkGBxk2tBAsMy5jXpAAWaFMwc8YAhaD9V4YuVKuBAqse+98Spg77U46OFFG/1Se8Hh3CRrmU6JjF5mexfDqvOPFZaFKwqmnbtm1RXntK/GAQUEuMg0HP+924ICkospg5w2nS10Dt65l9sKuUwoWATDqhUVN+KOFCPr7yESYeQVTgJKmWlsZWG0Cdwrznj3ArgmJvvccNSQFsnKh4H2RsCs1QmSHsOFvIVAE0kZy29FYRh0Bq0fnvnHfeeVzIePHRQDmXLVvm0R4pouL8NmpWQhAPaAXRpn2RFO0eKPHS9s3iGEi8mN9xNhBQ1DsKgWhAYMTcLTR47lYuqr+dl6OhPLEio9WlprG4M2+s1KUoR8OGDflPX2Y8RVBCU+txpUkJDYShSfWnXb/Q6NVT6cud3icpI7dux54amkxNpNqunvsEaKOoUXgUlG5RluyuirtuRBtuijpGvbatdyolsP8eaNXbhpRVEpFAAGYeMaiZWfEDHxaxlDkS8qo8fSMglpbLOw1r31AERYuIfddKk2Iflrak5Iuc2JKBSiSqEBjeqie1OfZ0Orfe6VXkVpqUKpA45oaVpadC86JWfzim+rwE8adFkTVnqg7tr0OlSbEf06BS7DB7sOf9bmxWPbD1TboDlDYTkBujsNTHM/mdJTpaG6M0tfe/3BU+zYM2b1/XwDCY0NaC1qqNDpHQ5q1HNkScV1ZP4T8Hrzp62Njg1ew3+/uuy3BT7UCbn7qODAJ6K36MBjCx1wq0LsrZNjL1ZZSrPy2KIihGyNl3X5EU+7AMOqVXVrkHKSRkdVDyNfj5eiYL3b9V0EVQCQSBQP9WN/O38S8Ii0xWYPqb1rmqNiWI7NSrIUZAu+LHiIQIR0w4ZkID48sxM8Qiq+Q1CAhznZ45ThAUPDOz6keBGxgCcbGZW2DQhP8tPmtmYXjrnmrWHH74HZUjiIqsBdLzTXKUwEoYXQTMHkaoNwjqJqhuhg0BWYsiE0d5m3vUG7RfiliGrloUSQkdtgGnbMZsEHDi6sWoQQCmvmgP6NDjPZg5jFA4ZYqZe7xjFunyy46w8jJi4WsErRfqTJnnQl9TiqSEHmPLOZg1z1hOWL0QVQigHQhtChxooy2go8fKFUVUiA9mvg4jxExc7NAbbfUcy/LKK3pkZ2jcV3ughKfmFUkJD85Rk0ulq5LeXjud/tivtvWOmkpzqKDY2AxBHMDnUDHDJpY84Pk640eRurBViW5GeloUQbjxgj+CoupPF9aAbyqSEjB0sfnioh0/0wM/vUUfbZzrKWBR2WH++9+ifbRo+8+0bOcaWrB9RWwC4LBSidVFWIasQnQjAG2JfBihVsukTD7OqF9BrkV9mNkDRfipYLmytl6dUarolSLqScoFJ9WIXvQdKPmsLQu5VLlpOfzfzfl/U4OpPej4yddS4w9vpc7z/keXznmcus57kmZs+s6BJYgtkYJZFh5bSERPaTCoYbASjpey5GJpsrgn+6DIJh81G49MfaPOhL8JzDkyQQHB1Jp4BDkBMREaQ5jtlCOtffUX9STFPiick5KvPU9CKeXuor302sZveRaCpNTMqEFd2C6z155wLr9/fu4J9N4FA+mrjk9Sl0YXhlIclTZDwNf+M+2b5EYFRmJmGhXC2iCk7HuiR1bMrvixQRSVhEUE5B2CtQRFEA+t1kSQE2hesG2+cqa1CLqf6GqfFD8AxdPjhxaO9hQ3OyWT/67BNCpTOj1LJRWl9PaWxXRDk0vo2pMutR2WA6UFVFFZQTXTq3ulDVPTkp2radGO1bQ2bwv1O6M7XXjc2Z44/p7bJSgIXLXUbMpITrcrSVvTcaJGEYexxaM/CgYzDFZikMPAhz/Zl0HeQwUYIa4gL7g22lPF1kYTpsQW/pnPc1q0aT/N3+T+LWd9cZOj2nAQ70i1ZaH5Qj3p7YECcoJ6kdu02iMl9I1IkZTQYxwVOXyycR59vmMNPceWvT66aiolJHgr2fYddncuJ+eeaLk8hWVFlHWE9PyyZwM1r9WEUhLdTa/S5aJnlr1BL/w+i6d7DfO9mNJ5OP+96t911I2ZlvIryigtMZFOSK9GQg4zzxEH6a9k5/B89/cySmRluqLRRdSC5S+H1XvWM9PVfGp/XGvq0MB9cq94nl9ykO76dhh9tXsdvzW8dS+22Zo6V8cLQHWhi4BsGhBEBRHFffwrTk2WZ/BilQ8GxWg0G4CUDJu3hWMy7whB0QXoyE3vOFv53Y7MjA/yEk7SIupA1IkgIHrEBDKCzERj/fiqCyc+UyTFibUSZpk27N9KfRa9Qj0anEU9TunMSUpaUoqXFNsLdvPrJtUbmJLu5VXv0Vl1WtL6/VtowPK36ZNLHmHamDLqvWAU9WxwNk287EmezpAlY+nlDXPpGaYhqZNRk+5e+gZ3zm1/3Jn0/Mp3OUG5kf1+6/InOcmQg7/n0P7cOm8Izdy1lppm1qDqyZn08rovacX146le1jE8qZdWvkNDf/mE/x75+0yadP4DNILJ/tWVo6luZi3qNnMQrSv4l5m4BtBips0ZvGoa3dHyOspMyfCSJdQXS3f+ojb4CzXIIUhfj6jIWhWYBsSsHfeFqQiiRIs2xR8pAeFAkDUmMtTQrmjJDK7d97byqMM7ncj/faxTI/6v3UH2H5I1JfA1EUFpTexG3Vx6iqSYwykssbAnBnwQcNZOuPZKgZbjxjmDqTHTUrzYfhCtYloFhBmbf6CWtU6i47Lr8ut/jpCU+keu/QEynxGN3/O20kz2L8IXm+fTe9vcS1LnMI2Ni/239cB2TlCQd4OcejRryyIet1lNd0c0rO39tItpMT5maWz57B4a0e5+anvsGZ6s/T0fumQcJyifdXiMOjY8n977/Uu6d+mbNG3DbBp45i30wz/LOUE5PacOfdH1RabtyaCZW36gjUX5dLC0kD9fdXAXda7TjMqZKWoBq5sWWbXDTlD8Ye3U5+jUMdDC7BPvAWQFf7IJCDN2YIMZuRgYMSjCQRPXTjaV+SImICVPdHR/w2ZMN49JjQPpCrOQTFwGz93KY+HfUBAWoUWR2ynwV8Qk8l+uIimRr4OISQCi0Pebp2hz8UEuQ4NpR80Yi5mp5VBpkUe2rQd3cG1EYkKCaXmn/LWMahzRyICgYIB/uFUvum3xq7SDaSfmbF3EzTjn121OA5a8TtWYv8f4tvdQ7Qy3Q+hJNU6g+UzrMWfrQhry00S6nJl+2tdsSC+1H8gJlK/nzWs2oQls9VH/kztygrL38H6mIZnKZZ/657ecpLy/4St+/e5lQ+mYzJpUyrQ2766fxWVqWqMh0/KMo+ZZtXice5a8Rqcw+V+78P/4tQr+ERC+Gf5jxk8MEBVB3mQiAmIiZu1Co4LnTjL5CGKi1XrYaZoBqcGfIC56pMVuwiJrUURLVOTEOd+kIinOqYuwSgIn1X7zh3NNw+XHNKVmzNekDVvFg4H/vBkDqNsJbbhGA5oWOK5OZj4rfzEyczPTuuxmA352Sjoz2QylWum+l4CPanM33b54LB/4p3d93mOyWZ+3mcrZxnEllZXU+5Qr6PUOQ6qUH6aiJczE0rvZldTpxPY0k2l3Hl82ni5kJpjNvabSzsI9hs839Xqfp/f5tiVULS2Lxq6byfxgkmhQs840av0cgm/M5Q3a0NS/llPXWQ/TeYz0LN77B+0pK+bmJZCxclcFbWZlnXPVy37LWUV4m28kWCCHNmetkrMZAZA3mHm0jrUiGzGDx3WkTT6+iIkVbUmgEGpJy4i5bl8Xmagg7WA0LPLqM0VOAq2p0L2nSErosHV0ymOY3wW0G6+cezvdznwsRCguL+E/f2MraRCeYBqECZt+8DzHQH5a9eOpHSM0mT5WutRjmomLajWi7id3pl/3/kmdGrbzmI661m1Bmw/8Q31bXkvT/vyGen77DD3YohtfSbTy3/W0gDmpDjr9Bu6Xgo3lhq+eRlc3OJeyUzOpfmYu1/z8yExAjWo0MHy+ZPsqmnj+g/QftmJp2K/TORF7/vwBVIe9/x5zkv1s07f0ZJv7uFnns83f0+aCXdSI+aDsYSaojoygITzXrj+1nfEAdZ7xIN3Z/Eo6XF5MS5jJZ9m+TfRl5xF0au2mHlxC9UOYAEOVvko3cghoTUCyJMLUEwmTjz9iYsaEEypUhU8K/hVaFuQFkiITFyvaHWFyU06woaq14NJNcLEQXBLhfxuN88Jxq3jGrlGXhF+AEOXYa/aj3Cfluy7DQ+6TMuHXj+mMY07RzWcUcybFUtt7z+hJ+4sP0Px/VlBdZvaolpJlemCGKQktS888hGcICew/7GI7YsUkmvn3cspjJODMasfRBczv5AFmFsply5GxKmf0qvfpR+bci3A2I0gdGHl55Jw7+LW/53CePcyIFwiQCFjx42JanCSmWZEDfFCu+PopWnHNq0yz5Lap/8zMXmNWT6VZzHE1IyGJzql5Il3BtDp9WlxNyUdWKHklYvOFaBMj2KqiBzSrimL1O7AZwqhITt6TQyswTEGhHEDRa2LgAgAAIABJREFUjhCwIkfPlAONSSSJiRYPo2s905CIGwo/FiM51H17EVAkxV48g0qt1xxGUnaGh6QEJWiMvjx1/Uy6a8kbdLDPjCoriSJVZEFScMBg/9Y3e4mhSEqkaiV0+eqRFZgg7N4gLFaIia+agGlIb+WQIiy+UHPeM2XucVCdgKAghGtlj4OKHhFRsIHcxdPvoc7Hn0MjmGloATMRYUdd7VLniAh3JFOc3eNr19lIyqbyth8BPROQXSYfYcaB1FqNCe6JVTnRoDUxgzxMQsIBVyYsemahUC1tNiOniuMbAUVSfOMT1qfdMCAdISphzThOMyuvLOfOwK/+8TXzNVlLK9gKJmxmp4J9CDhpdYp9pQp9SjJZCeZYAUFM9EgJShFrxMSoZowIi9iPBcRF+LEowmKEYmTuK5ISGdx95oqze5Q2xSdEtjzEyqRfr59I/138Mt9tF/u13M6ceVWwBwEQFCyr9Xe0vT25xWYq8mZwZkroy4wj3hebq0WLr4mZcluJowiLFbQiHzcqSUqsqCO11d+2rluTMprt5zGty+nax+o6BAjUz67Dzyb6cccqasyccsO9k6y/IsG5GGEJ29q/v7/IDnsuzBTBaAIcViRHiuPPjAOh452YGFWclrAgHrQqSsNihFj470clSQk/TOHJsQ07t4ZWf8B9EJQ2JTyYi1za1W8d3gxN5vYY24Y/WoPYtCxa5Xey3P7MOJBdERNrNSgvb5b3Y1GExRqOdsdWJMVuRINIDyaeSGyNH4TI6tUQIvDqaveGdMgCWrZoDXY5fkZr+e2Q24wZB/lY2R/EDrliNQ0rhCWchyDGKt6+yqVIii90IvBsIHPc/HL2YHaQ3Qc89/6tvJedmhEJWphgA84Psju0YSTM7hCLvjuov9FsbxazTtRixmw3tiq9yCJgxowDCYXzK37Hqik8kjUhExbUiXy2kNsheSsXTy1tDk0tKZISGlwDThWDLjbugpofRGWJtNon+peiuolXwOAE8eKV/5TQWTvKaGX9FJp5fJpuStBihStYrUvtHinhklPlEz4ErGhLIFW8Or6Gr0aq5uRrm367zxSqmnt83ok7klL05gQqeGOSYW2nnd3K8Fm4HtzCMrq0MJUd8FfItm1f5Mn2zONiq7pabS8PKaRn/F1RJf1bqYT6NjhM115b9cwhq8ShSuIhuoEdiFWITQS0M3OjUiptiREykb1vZBbS24tFmYUCq6vYGvX8YHDgznupZMVqn7H8Pff5so0Pa7O08CcHvUHXxizjJinguCqvDe3vfVXQZbbb3ARTz1K2BT93ombBV/pKtR909UUkAbNOr+E4wC8iAMRopkaERTjeEm3lJVdmIWsNIG5IiiAo0JRk3X0HRyn57LN8olW+YqXh89KVPxs+w4OyFb6f+3w5wg9Tz/GNiy/xUs60d5WMvzryJYv8DHWJOhNatOpTZlHTh54w+3rY4oGU+CImYRPExoywT0o8BzNmHOXwGlstxJcfizILWavrqDy7B0VMGPQ9L6mZAwZlE0+dVUusIaRixxwCgrDWnDDWL1F1euHxHWCAm3ufveTQ6eV2uny+nF7lpcEoh9KIOb027ZVPXt4sp6yIqj7OUatJQYUabfWsX1Si7HtuN3qk7scRAtCklazoR4VvTqTqfrRpToZFzNAvblLVv8bJcseibL58S2RSoghJLNa+tTL50rJoVwspPxZm8bAGr/Nio3Pw9+EL00vqWWc6rwBKorAjIExITvE/ChQALIVUIXII+PItUY6ukauXaMpZb7WQOLnZbRbayosTz34sUU9SrDRIu/wbrOSp4joTAfgmgaTAV0W1C2fWkROlUsTEibUSOzKJbfqFZk72X0EpcR1vhCUuSEq0z5hj5xN0TklSzj7T70ov50jrWxKohFUILQJG5ESZckKLe7ym7tGwdGpE8U5YopakwA4P+x1U3v7MPfHa0FW5/SOAFT/RqkmBWliF0CPQadyqKv5vwpyj+p7Q4x/vOciERet0q10pJPxdYgmzqCUpohLQUT8WgRqp/Ocfch0qoKTmzSKQu8pSIUCegVMNlKFpDZjBXsgIigiKmIQGZ5WqeQSM9mJBCoKwxBpRSTQPT/zGLFu4iPKuuZFc5Ud3SC2a9A7l9xsYv6BEecmjeR+baIK+Z8+eNHr06GgS2SOrTFAWsCXeWOatCGFUVmVMCs39V9gftuEQZsdY1K5GLUkRdngry5B9bc7mqxW7Dh6k8m1Mc8L+FaEybz8lHlvX12vqWRQgEK1kBbN8BNE5ORVqnIA8ZswYWrp0qVNF1JVLqNXFQ7WSShcmdTPCCKAfkM2RsbgdQdSae+QZDSoqpDOcrKwqTbH87+2U0vzkKvc9NyrYuTFJScbPnfqktJSTsYTamk35Kyup4vf1VLZmDZX9+hulsP1F0q+/7mgpioupfM0vVLZ6DZVv3kyZPXtQUmv7z0Gq3LePErOzidL0Dwk0C2u0O1OLQTMWOyWzdRjKeO5J0FZPFlCli5UVsaZODyWOKm37ERCOtGKpssgBE5ZYbJtRS1JQMaiUcDjPCg1KYvXq7vbgcrGBeBtlXtWVX5ctWUqVu3dT2jVX82tXfj7tuaQL1Z49nRLr1XO/I/5/+DBRRga/qti4kRIbNaKE5KPVgHfLli6jir/+Zu/WpbQrryBKdCu8yhb/SEknNKBERiAKXhpNlXv3UbXn2eFzZgdsRkAIebH0Krdvp4ScHEqoVs0jX9l339PBZ0dSRV4+pTRrStXHvUyJubnM9+YQHeg/iEpX/8bjJjduSEnHH+95r2L9Bsq/fwB/LzErk5Lq16PK/fvJi6IxklO+7ncqW76cElj+qRe0p8TGjT1p4Idrzx4qmfc1AeeUTh0pISXF8xwyFAwbTofnzef3qj8ygNIYEYrXINS6amVPaFoAJj0w8YAMCls/cpLJitpoKzTYq1T1EfC1wiyWT8SOapIiVviE2nm2YvsOPviW/7aWXAUFVLFpE29FSSe7NSnFn3xGpRs2ekhK+dp1/HnFlq2cpJRMnUZJLVqw6y104OnnKfe1UeRihCF/4KOUee0VlP0/9xky5WylSf6DD/N3U89oSWUfbiQXG+zTb8W5yESFE9+m1FNZOnv30uE53/F7aXPnUdpV3fhvvVC+fAXPN5lpNfZ1v4Vy+v6H0q7uRnm9+lBCdhbVmjODvwYCtP+hwZR5TVdK79yJDgweSiWfTaeMvrdTCcsDBAXkJPft8V7EBu8Wvf0OJyiZV3Wm7KFDPKTKIw8r66EhQznBSGnamOdbOHka5X40hRJr1eLRyn9aTvmDHqXKwiJ+ncNIX+nS5ZR1V19KZpvwgSSVb9xMNUaNoPJVq+nA82OoDkhheronm3j6IcycIdUgxhOgOmUVqypARvTICg6Mw0QJ/VAszmB1IFG3woyAP2ICcWK9D4hqkiJUslb8Uqy2MdeBA1T0/kd88Mzrc7fX60kNT+DXZZu2MFJxqvsZ0xgUvD6e/044ojEpZYcNJmzeQiXfL+T3S+f/QIUff8F/l/ywmLKZZsbFiAcISirbZKzaiGGMpaTSvqtvoIIJ71LaTb24VsFVVkYFUz7i71V/dCAVfT6TypkJxhdJgbam6MvZlLRwMX+vjMUvXrDYTQZYmSq2bqWkBg3o0Atu58YURmbK1q3jpCO5mXvlUjrT5kALUjR9FuV1v5lyBvaj1Msv85CRrH73UcWefVQ0Yw7BDJY9sD8ln3YED5Zn0RvjOUHJHTeaUtq2odKvZlP+409T6Zy5lN77Jk788u7uz4lgrWnvMPLXlGt6Do2dQOlX7qDKvDxOkjIuu4gSmPNyyc+rKaXlKXFLUIS/hNjUiVesCiFDQJAVEBHtnhXihFtoWARhURqWkFVFXCQs/M2GzdvitfRd+J/FstZEr4KjmqSExS+FmUdAUDCAZlzdlZJPOZkP2IUfTvfWKJSWcXxLZs6isrUb+G8XTDtHQtGnX1JSTfcZKyAoGGSzb72Z9v93CDdzgLggn5xnn+bmoOJPPqWK7bv42+XM/JPCzCOVO3fz6+w+N1Faj+5UyUwgxfMXUlWPGZGr+9+y9RsJ0qEMxT8u5//WnDyB8m65kyr+2MiYSxl3DM68vhsVvvs+M1cdoOzbenNCwQPTVkDbk9m7FxWOe5PyHx1Kya9PoJyHHuRyJTKSU2PSeK6NKRj7Bk83vd05lD3oQW7OKvpoOtfgID2QvoLxk3iyh2fO4SSlbIGbvOX8dwAlNWPkgwVobxBSWragwglvcfMTwoGnRnCNTs7gR/i1CgqBcCKgR1iQP0iKICzQsCDE286g4ayHWMxLT2sSr8RErt+oJikoiPBLAeuce5L9J8EmMKdZDOppl7SnrIcf4thxHxKQFKbtQEg5rQUbcOdR4sgXqXDap1RtwL10cMzrVA4HUzHQs3g5jwyi/Ef+x9OrMWokSyiBvw+zEPcVYeHw+IlMi5HH08t54C4qnDSFihnxSWl/vsdXJPOB+3nc5ObNqey1ieQqLCTI6Stkdb+GKnbtZlqUJVT9hWe5piO54fHMt2YL83Nxa4SS6h9LNZ8YXDUZZq4pZiartGuvoZyXRlLmH39wsrK//8Oc7CTkZFP5L79SapfOlDu1LZUtWkyHxoylvFvvYuYkt8bo8Dffu808733AAEuh7Lv6MLLCzERM0wNTFMKhkWOolBGd8u07OdEDqUts0oSxtAqqYBqaGm+8SjnCL6iqlJbuiG3xLb3kkMixuh+CQ+A1LYYgLHhB1rJ4n73ivZW50rKYhjfmIyqNibkqjnqSAtXXvD/dO0L6W+UT6M6iSSc2oFRppUriccdxdKEpAVHJGvggc5xlTp8/LqPcF4ZRyqUdqOzPTf/f3pfASVFd65/unhWGYRkYdpBVNlFRhEEQ1JgXTdyCAi749EUfaIyaSFxijP41UWM0xjyNWzZxifgMamKizygaRRYFFWRfZF+HfZiBWbrrf05136ampnp6mV5q+e7vNz/oWu499ztVt746W3EmzFKSEFl/xzIqGjuKCr55DpXw9oIxFeQrL9f7KP7mBLaYbKPC886lwn/NocMzX6FA505UeuuNVHTlFUxoWtPBhx6jNvcepTbXf48KTh8TdbPknXSifmxo+3YKDAhbGsxq93HMhzzsW33/ej3At3D8uChxan35JKpjGcV6UXLFpVT1P8+GC9T1OU4nTrWfLab8/n2p5O67qJrJxeHfz6Ti887R40hkTtLqPviQ3U3foYP3PEABtpAUnzWeiGXO61JORzm4WDJ+Su+/m+NN7qRDjz9NxUL2bvkB+Tgg98ib/6DaOR9Sq2nXUYc/P0NHnn9BJyh5nct1klJ45jidyLW++UaqvfwaOjD9B9Tq0ouJOJNI5K5bspzaP/Fr8vfvb552wr+lPL6TmtNcPRUVFSRpyKNHR6xyTgI7SVmjVpbIecbqoMeCbzfqe5WVBaQlSZAdfriylsg0zGEK8sLtNVdOIur0adwSOdDOx8hioHzCUnDJ3HafXKFvKv9ivnlXar857mTvBROp/Qt/1LNfLBsfIxkuemCoQCx/kSydRscr+CNWFcnu0TNuDMdKETljBlCT8yPnWsohG1kWy7GN+/iYozNfILF4CEEQd1ThSE4znnQJ14PpSqHNm6nmzzOZiH1KQSZksr9g+DBqdcN0tpCwJYUDdGtefJnqFi/RxRDrUsFpp1DxNVeHxZLUZv6TY6NN5JL5m1O1OX1796ljqe09d0SDkSWDqOallzmuZy75Cgv0GKCCcaeH43HM5x8bIeb/Dl53vf7tnpLp/6WTJKc0348+0EWVzBOnBMxJjRQvkJTmriFzLIv5WLiGzIi447fSuzldWGYHV05iOnYFSZGpqsVbqu+ZW9pJCg8g1gt/t27mofA7DQiEduygPed9NxxEG4lRSUO3jbqoeeY5Ovz0Hx1FUhQZlwcasknSfUVkr7/mHlxKCpCW7Okj3SNZxZaoMZS1RH475SUj3fgk25/j3T3Gm1qsKVJ9z8qaIjEI6WwgKOlEk+jwvfdRqHIPlXLMi7iIpPn7Na6jkt4RndWbLHyIRXGWzmJJ25xbSJ2jdI2soVgo2md7PNIJN07LdOUakiJvlsqkJm+c5jdNp1cYbZma7X92cPtOjoH5goJXfY/k/8VnjWtUzC1TMyjgGixOaKrCLNKOnaCt5GRUa5X8a/7KrfSErKHk8MzG0c1ZS2R8EJP0acE17h6BRC4c9VEwZRKX7/Xsu+5GHbEOzz1BqQbPpg9y9GSJAAfDHnnxJaribCVpZbNfpgCnL2eqKRegE64J5eYRLKzcmZnCCP3mFoF4b+ginTwMUUwu83oSXUgz1y5RIys9IBA6/bpwFUkReIwLuiIqKkhSXD5tn3sq/Siix7QhENqyhTQmLLGyldIxkIpHkb7SFkydDsEs+rC6ni0OwyYPIGBlZTFPW9Y8PCjNqKT2W1lL5GxzJo5sQ3xJargme5brSIoAYPwqpNy0N7z2sJ7JIc1p2RzJKhTHx0dAatFUPfUH/UA7kxQQlPi69PIR8UgLgm+TuzoSsZZIj0gTTg7Xlh7tSpJidPsogO7d+C5dv+HDKF5CViQeAe4f60tI3GTpbPWff5Fwd/kjmqaRxzs5ET3KnKqf+b3tCavZ3+3kbJ7HHgt/bkHqpXg9DTneNdyS/co1JH0cq8lyrEe4I6zRhbXEGhc7bXUlSVEAGy0qapuZrBiVke4MoFwqGoHC8dG3oxXFaD2RGTiZoIj8U6ZM0Yu5zZo1CyQl/iWZtiPikRZlZfGaaygRa4nE+HgNl7RdeBnoyNUkRfAyL/oKw/vqvqJRwT100oJ/ZQBWdGlnBISMtp52ra2saFbXqZMKtsXStyIpt9xyC/3whz+MdRi2ZxiBREmLOSsyw2JlpXs1dxRUywrcaR/E9SRFELN6ABiRTNV3m26XSNq1m8UOE3G3ZFGcJkMpXdlJTrNbRwntdOuJEXyQlCaXoi02xHtwO92aEOveEvAR8GqLSzBhITxBUhQa8ciKuoDlBlXNS2Y/ZQpN+OpJ84FursBoNDMLbM1lC7gJB5CUNN8kGequuSBcFc8iQ9vR0hLv3gIpydBFk6VuPUVSFKbN3ZDN4S4XeyrN6oGUSj84J/cIJHoNJKJz1ZdkC0hzEzlRmgJJyf01m4oE8dbIXMa0JEJKZM7IwklF8/Y7x5MkxagGZfaUbVY+S/upDBI5DQEzsXEzKTHrBiTFjIjzfhvXSKvMITUjI3GRbekg3YqQSMXl5tZnI+FPx7jO05J7JXZNWfxUVaS+oyHn35lCJ8m6SFR58xSGsjxFblw7NaOrLFW5xMWWasMClSpyOA8IWCPQaI3k0v3SrCwtxwjMxmhHRleR2hjr/lZro1rT4lkjQUys9eW2rZ4nKS1VaLIPxWSPjydfKsQqXp/YDwSAABBoDgHj94bkOCvSItuPfXfI2NvG5rpudh/iS5qFx5U7Pe/ucaVWMSkgYBMEFixYoNdJQTE3mygkS2Io0tKciyYRUWAtSQQldx8DkuJu/WJ2QAAIAIGcI2CMaxFhYrmplbvYS1mVOVeOzQUASbG5giAeEAACQAAIAAGvIuD36sQxbyAABIAAEAACQMDeCICk2Fs/kA4IAAEgAASAgGcRAEnxrOoxcSAABIAAEAAC9kYAJMXe+oF0QAAIAAEgAAQ8iwBISg5Vf+8/vqZPNx7MqgSVh+vpSF0oq2NiMG8jIGnIaEAACACBVBAASUkFtTSd88RnO+mnTFSy2U77zWK67PmvsjkkxvIwAo899hhNnjyZpDw+mvMRaAhp+ovV60t2U3VtMDqh+qBGs7/cRTV1x7Y5f7aYgR0QAEnJoRaOhkK0Yt/RrEpQr2m0ZNeRrI7Z0sGwALYUQZwPBFqGwKpd1fTj19dQ/h0f0ajffk7ffX45Xf3iiminizcfookzV9DjH2xp2UA4GwiYEEBZ/AxeEpv3HaG3l++lumCI3l+7n+75Vl86uWeb6IhFfj9tO1ibQQmadp3v81FlXUPTHTbeohbAB/i7IXf+x3E2lhSiAQH3IMDvM/TK4p1097ubaP2emujEzh3YntoUBujKUzo3meyS7VVNtmEDEGgJAiApLUEvxrlyc//srfX08w82NzoijwnCa9cOj25rVxCgvWw+zWYrLfDTxkPZNcl+saWKTnl2CX1vcAd67vIhKU8XC2DK0OFEIJAUAs/O3Uo/m7OFdh2IWHr9Prp+ZBf68Td6U5+y4ph9bdxfSzsP1dG6yhqqawhR17aFNLhL65jHYwcQiIcASEo8hFLYf9sba+iRj7cR8Y390wk9aS3fsLO+2kN/XbGXVuw4TEO6lui9tmXCIE1IDfOXrLSOrfKJGqopyOQowPJlo81Zs4+06nr6/aJdNKxLCd18Vq+UhsUCmBJsOAkIJI3AtDfWEUVeoJ6+eABdflpX3Xpibhv2HqFZi3fRJxvCCQALt1ZR13s/aXTYqttPo+M7g6iYscPvxBAASUkMp4SPmrf+QJSgLLv1VBoaISSLHliom0xnf1kZJSmlkZtegtHyA9khDPkRYrKHSUPnNgUJz6slB/5gfE+qrKqjXy7cQesMZuN4fWIBjIcQ9gOBzCAwlt3Sczcd0jt/6YvddNpxbRu5qtWoF/3hK1q6s7qREL7W+TSRjz+jX1s6sUebJgSligNuZZ2sZrdzRZ92urXF2HbzWtH5gQX09Hl9dXL0//65nuZtqqLjOxbTgxf0py6l4XVr+fbD9Chbq2vrQzRlRDmdO6wT5WXpxSszqKNXKwRAUqxQacG2u9/eoJ/91ysHRwmK/L721M505zsbaPP+Y0GrJezukRYSUwrFJykSQPoMm2H/b9U+GtWrlKaO6kK9OzQ1va7ZXU3PfrKNNu2rpXF929L1Z/RsQoLEFCtNLCp/mLeNHv5oGxXwDb74R6dSccTCI/v/uayS9nDasiwAnUrYCmPRRK4vthzSTbwjWK7jy1s3sgwV5PnpoYsG6H/NNcka6MCWnv7lrfTDUlkAJcX60fc20iqW5dtDOtKkEZ2pbXH4Mn+PcTvn90tJyGMrxv6nf19Pmzkm6PTepfTghQOyZs1qDgPsAwJ2QOCd6SfRT/62jn7LLxYf83054rFFNKJbCf3q/H501vEdoiKeM6AdLd1zhEaxS0esKHLM4hkjLacgpQ/u/Ntaenze9kb7hdS8d+WQaL8HjtQTMZFZzGvK7+Zvj5Kg+RycO5VdTl1KO9CT/95CN77J1p5Ie3lpJT3MpEbcUWjuQgAkJY36lEDZOV8fIKbzdOHw8kY9Tz2tC63gN45pY3tEtyvSf4TfBAr5HHnD+OsXu2gkPzSVBUYdLA/fE369KOojfmv1Prqb3yKqfz5Wf+Cq9tKnO+jKV1ZFf7+2fA+9xW6md79/ciN5xHqzdFsVR+mviAbFjeVxq2obmKQU6MTknKe+pC/ZPaW3V1fTVSeX03OXDSYhHaoJwbl29tqoaVjfzhN75Nw+dOvZsReMWiZJp/F8bj2jB13Bb0vn8lj/4rcrOXfzXaOpZ/siSmYBlGGF5Ix64ouoLG+u3Eev8Fvg+zeG576eiYuYsOcwdje9xanfEXP2XI6Zuevcvpbm7OhE8R8g4CEEWrOV9/FLj6f7vtOPnuMXnh/P2Uyfs+Xi7GeWUAW/iPxz2onUjsn/IxcP1P/kpafwtn+TrCuxWp+HFkbXrws5Pu2s/u1pHt+z4gqXfh/6Vh+6/ZvHUWlR+GXoOXYPS5N152F+wSnOD/C+AP196e4wQeF16P3vnUB92MLS95ef0m0sI0hKLPSdux0pyGnU3VYOGpM2/ZTyJvEe3dsV0cyrhtIpfIOrpny8R5mkiPWjz4ML6RomA8N+9VmjIm9iaKngtD8JYpt6UjlV3jeWbh3XnWNLQro/WLX//XxnlKBMY1L0zHfZcsEPfXn4769pnNEz4/W1dOKji3SCMpgtHyvZb/zxzadQecQF9KPZa3SCUlZaSJcM7agTr5n8wD/7yS/0GBpp189aSde+tkZ/2A/s1Ip+wwvazWO66WPO4Pov5/PCI2RE2uO8gIxmUqJaA1tfxEz88ue76S5+Y9MJijTu68/89iRNFj/t4fH00U0j9N/NLYDbGRtFUJ64sL+O0and2+ikcROTR2mlEYvKTX9br4/za5b38INn0OFfjANB0RFKf6uoqNA7HTVqVPo7R48ZR0CskDPYOhHke+T1/xxKYvUQi0Z/JgXG+zE/EH6U7DoaOyh/16Hw+ihZem9cdyLddGYveuWaE2jz3XyNFOXRHWxplhcno8V2FLuLnp86VHdNC0ERDnTN7LAF5bqTxLpbQC9zvSlZCyey1RjNfQjAkpJGnYolRNpGdrMk0koiMSlCUMY/u1S/0eQBL3fi1a+sphV3nKZ3I2mAegogE4WrR3Wl5UweXlm2V983gc2t0oQ4THqNLRrcJNBt2riwxaYXWyRW76rR33qkqQDd2WxdkfYrNpH+kANZjUG04r554cvduixf3zFKXxwOHmmg9uwnFj/1i59uZ1dTN9oUIWUT+rSl99hSo/p4gP3G5/N8xNrzu4+26v0v23lYNwdLASh5S6uPvHH937r9JH8y1iuXDaIpL61k/3PYF64LyC2RBVAvisd9Dmezs/jPP1izlxaJFYgXv57twy6xbgbf9z1s5RG50DKLwOjRo2nTpk2ZHQS9pxUBsQjLvSwvVqrJsnTRieW0u197Kv/lQtrLhGM1v2QMZfeONLWu7K4/RlJkzbj/na/pZ+f209cQtbbdwdYSYxOr6XXDykgsJ0u3Hqbh/HIha52sh4/zWmZsYgWVsaUvOV5ZW+T3PWwNRXMfArCkpFGnY/sxYeCb5R2uifKRPHjjNH/kzh7/9BL9hrz/nOP0t3rpYyUTF2X9eIitEHrjY8QsOoFdI9v2h60qfTqG4ze2H+RUwaMN1JkXFkVQ5JRvsRVEsmnUIlJuiivpU1bUxOqzhgte2A3zAAAgAElEQVQ3SfMxsSnOD18i8kb11uTj9e1vsHlWmgrC/QUTHSPJEffT9DFd9WO+YGIirSO/gUlbEvmt3qr0jdw+ZPPx5FO60HEcY/MOu1+MLdYCOIOLSx3iNzfxdf8pYlES68xpjy+mSS+u1EnL8xf009dGadE3NN5wO2ONBgSAQFMEhnBV6h73zadbXltNn/ELg7KcilVUXpC0iHVUgu8bNSYWGhMT1SQu7lHOcly0qfGnP7aqtObIge+u3BsmG3xfnt4//NLli7zA9TalO1certPPepCJzmp+iXvyov40k9el3feeTid0DxOmxkLhl9MRgCUljRoUC8HT7GqYzq6U8b/7kn7K5szvc2aLikaXh2l+ni8agX5YlZXmh+l0DoL9KcdxSLt8WEeSQLC56/bR+Rzbsl5uTF4AdrFZ9HM2tS7nB/EothbopCjS9LcevsnFJfTUR1vovzn2xSrFWJWyFreRWEsueWEFXcuLxL1MNMR8K4G4yj0iacNTZy6jZy8bor8JKUtRZcR1FDGGsOXoCI0xyLJudw1Nfj1skj2f35CkqbeyD5nAybFSS0G1ZycOpPED2us/z+lbqi9Ysl/hpu+IsQCex8GxKqV7HGPy2jXD6L1Ve3WCdw77vQeyK0s1FUDbmV1YxuDg6AH4DxAAAjR1aBk9vXCnHuBqDnJV8Ew6oWP0nlXbyjjoXawcUnxRrLG3vR+2oCkX9zTOwHnm053U6+FP6Rpe4wo4o/GDDYdojcSKcXv/uuHRGiyt+MVCXpW28XpmXAfKIi87d767ka7gINobOClANSFTshaJ9dhq7YseiP84CgGQlDSrS6wYbfiBfsWs1XoxN/kT64ZuOYg81d/hgm7/MaSMvmI3jLTufFM9PjFspZDfkk4nJOWfTB6EpPRqVUArD1fTPZyK99Tkwbp1RDUxqUrgrdzIU4d30onHDVzj4AaOuxjIbyG8VtDOo/VUw/9WsutmOwfESrv9nN500fCOeilrqV8if9K2MBE6qPzKTAwkqG3Wyrk0nIPTVKrh+Ijv92qOexGXzhV/WUWzl1RSd3anyDEfRmom3Me+7EtHdNH77dY2nDZYw7JK21sdJikncYr2dadzfE2kjezdVicpc1bvpctHhq0xsiveAijHSBbC3PX7G50n24XwiHUnwBV+pYkuslmbRh8UDQg4BIHfXjKIswLb0Xy+jxdsOUyLxLIqaxdbVU9ly+0PTu9GV43m2DNTO4/XBVl/TmVLjGqScaNeDh7lGDN5MXuJ1xRl+ZQXK8l8lCD7QYZaKuN4XRCLtLk0wzcHl5G4l2WN6fWLBTR9ZGdqxy7dT1nOOfKxVpbzhcmD6Ep2i6O5AwGQlAzoUR6uQi4kTW4WP7y/jNzkElx6/qD2NJpvMmnj+5Tqwalv/9cJjTJmvnNCOfXruIGW7AiTmGcvHUjjOGBV3m4Wba2mb3FZ6q2cOvv21wd1y4kEs4XuH0t/5gCzkznQ7MkFO/QYFvWGInEZ00/sSPIWMqhTMc1nS0d/lkUyiJaxpeEmzs7Rs5K4yRtIUJgNt9+zKXXptsP020gaYGt2Ff2MSdhtEVfJxJM704OVR+hOJmJSqE61s3iBu5MJyjcGHUtVlHoI0vp2DPu5L2B8bh5zgK4bc4ygyH5x+fw3V+vdZwr0jbcASmaABN4J6ZrIJEeqXEo21WwJyOWFUSxHz10+OOzr5oVMZhg/6Ts6JfwHCHgGASEGsoYZXxISmfwDnJ68nNcWyQL6Dqcp/5ALWRrTlcXS/OJ/DqOZfPNJLRRx44ob2Mrq8Zerh3Etlf3h+BTT4O/ecDLd+4/19CAHzMqaqJoE+V93cie6mO91NPcg4NO4uWc69p2JvIio2AijlLukcJFFUbUNTDK2HqijcREf7Wf8lnArW0fEWhBt3OE4zhZ64Nt9G7l+1H6rqrKy7QBbX5TZVB27jBcWWUSk5LVKY35xyiA9PVhcRGKt6RijTor0sZddQ2Li7dAqrxHhMs5VrD4yRryCS1ZYbeUYnAu5cFSsBVDGeWHhdvo5l/KOkjPZyONdzgvmgxyb0otdWeKK2s9ySJo3GhAAAs5GQNZJeaGRlxJjKQZnzwrSGxEASXHY9SBxLV/xR7zEvSMP3Uy0vyzaSZe/vJIUScnEGJnsU2q8SE0UKQpnJmOZHBd9AwEgAASAQHoRQHZPevHMeG8S8CkptpkiKDKBrmw2lbavxhS9n/HZpWcAsfiMYpcaCEp68GxJLwsWLKDevXvTlClTWtINzgUCQMCjCICkeFTxzU27TyRuRLKI0IBAOhCYP39+OrpBH0AACHgMAZAUjyk8kemqdOZnOABV3EtoQAAIAAEgAARygQBISi5Qt/mYEtg6iWslSDrfp6ZCTDYXHeIBASAABICAixBACrKLlJnOqdzPGUOSiqwKpaWzb/QFBIAAEAACQCARBEBSEkHJg8dIpdbXuOgcGhAAAkAACACBXCEAd0+ukMe4QAAIAAEgAASAQLMIgKQ0Cw92AgEgAASAABAAArlCAO6eXCFv03GD8x7QJQuM+YlNJYRYTkJg9OjRdMstt9DChQudJDZkBQJAwCYIoOKsTRRhFzHqX72QglvWUuGkZ8jXc5xdxIIcQAAIuBmBEBeO9Oe7eYaYW4oIwN2TInBuPS2vYoY+tdpXp5G25WO3ThPzAgJAwC4IhBr0tabh3R8Q7V/HUuFzcnZRjR3kAEmxgxZsJINYTwI9B+gSNcx/xEaSQRQgAARciUDtQQrtXkrajmUU2reGp4jvk7tSzylOCiQlReDcfJqypojbB9YUN2sacwMCNkCg9gBplSsoVLWfP6e+mrT6GhsIBRHsggBIil00YSM5xJqSX3GlLhGsKTZSDEQBAm5EIBSkUOUa0mrreHYa+RpAUtyo5lTnBJKSKnIuP09l98Ca4nJFY3pAINcItOlOoT27w1IUdSAqKM21RBjfRgiApNhIGXYTBdYUu2kE8gAB9yGgbVugT8pXXERUs4vrHxS4b5KYUcoIgKSkDJ37T4Q1xf06zsYMp0yZQr17987GUBjDgQhoVVvI36YN+fI5BbmovQNnAJEziQBISibRdUHfsKa4QIk5nsL8+fNzLAGGtzMC2l6OR6mvI62ujnzt+9tZVMiWAwRAUnIAupOGhDXFSdqyp6ybNm2iWbNm2VM4SJVbBKSIW2GpHjSrHa0lX5ueLA/qpORWKfYaHSTFXvqwpTSwpthSLY4SSsrjowGBJgjUVXGgbAnzEo387TuwNeUQH4I6KU1w8vAGkBQPKz/RqcOakihSOA4IAIFkENAaavUaKdJ8pV1QGj8Z8DxyLEiKRxTd0mnCmtJSBHE+EAACZgR8JV1JO7Q9vFkLskUlZD4Evz2OAEiKxy+ARKcPa0qiSOE4IAAEEkZAEROfj7SDO9ma0iPhU3GgNxAASfGGntMyS1hT0gIjOgECQCCCgLaHXT11XGGWY1IokEdaXitgAwQaIQCSggsiYQRgTUkYKhwIBIBAAghoHDirFYSJib9Db/JVbU3gLBziJQRAUryk7TTMFdaUNICILoAAENAR8OWXkK/+SBgNLo+vSaYPGhAwIACSgsshKQTEmhLoOYDwTZ+kYMPBQAAINEFA4yJu1RTcszO8h60qPrh7mqDk9Q0gKV6/AlKYf17FDP0sfCE5BfBwChAAAhEEIvVQgkG2qOSRj7+GTEXtgA4QaIQASAouiKQR8PUcB2tK0qjhBCAABMwI+A5tJn8Ju3g4u8fXDt93MuOD31w6ByAAgVQQgDUlFdRwDhAAAkYEQpXLSQs2cKVZLo/fuhzgAIEmCICkNIEEGxJBANaURFDCMUAACDSHQKhypf7dHmm+wnakNXA6MhoQMCCQBzSAQKoIiDUluGUa1b46jYpuDZe2TrUvnOd8BLQtH8edRIiP8bO70NiE8KJ5DwGtahv5xHoSWk6+4iLS8ovJj8BZ710IcWYMkhIHIOyOjYDRmhKc9wCpOiqxz8AeJyJgJB9CMkJbF0anIVleSbf5L8Y9RTLIkm3+HqOanCKyKhmlT3WMIkogSE0gy94GqTbLBdyk+fxs1N+zkqjft7M3PkZyBAIgKY5Qk32FVNaUen7wyMKPRd++uoonmSIjRiKSEgmJN1AC+1MZN945sj96jIkoKQIDop2ActJ1SH0NhfauC/fGgbNUNihdPaMfFyHg07i5aD6YSg4QECuKkBRZ6PMnvZkDCTBksggoQqLSyOM94K36N1o7jFYMszvHeG6yJNZInIz9KGtOKnJbzcW4TREWkO54SLV8f+0TJ0VjUoqu4bWjQ/IWtJZLgR7sjABIip214yDZjj46RJe2cNIzsKbYUG/ysE+WkCgS4gQXSTwyY1SJzMfoBoqnLlVlGVaWeEglt1/buZhqX5qqn+RvU0IF187j/8C4nxyK7j8aJMX9Os7KDOUhIQG0sKZkBe6EBlHEJJ61QZERlVaerLUjIWFsepBgJO4taYkQFxCW9CkytPqv1PDvhylUVUWB3oMp78yfk69scPoGQE+uQAC01RVqzP0kjEG0fgTR5kQhRhdOLGLiZUJipZTwdRvOLgrwAfmRg8SFKc1MXMStKU3+FcICl1AEsBT+0SI1UuRUfycmJ4VtU+gFp7gdAVhS3K7hLM5PWVNkSLh9sgd8cxYTIynxkoUk3egri4uZtKhxhLDAHZQc6g2vX0YNm74iCoao4OwfkX/oFGaJ+MBgcii6/2iQFPfrOKszRBBt9uCORU6EmHjRdZM95IkUaVGWFSNZkf+DsMTRxv51VP/PGyi4c6v+3Z68kZdRoOLOOCdhtxcRAEnxotYzPOf6Vy/UUz3xdpkZoK3ICYhJZrBOpNfmCAvIijWCoW3zKTj/EQpuWkn+1q0o78SJ5AdJsQbL41tBUjx+AWRi+nD7ZALV8Nu7ZOioeBMQk8zg3JJeVSyL0cKCYNumiIZWvkoNC5/kOimV5O9QRnnjfkz+/hc0PRBbPI8AAmc9fwmkHwCJfZCFWRZqeajmo+x5i0A2W04UOUGMSYtgzcjJynIiAbWSNST3gCIsEs8i6c+wrjDhPrSF//aHdVDYmnydTsiIPtCp8xGAJcX5OrTtDOD2ablqVIyP9ARy0nI8c9GDUYdqfC+7QrXD2yi44FFqWPIOUV6A8vqcTHkXzMyFajCmAxDAV5AdoCSniqiCN+VNUpnBnTqXbMst1hMpkKfewuWhJtV8YT3JtiZaPp5YTuQDnMrtIz16+Z7QDm5mK8pWHVh/YSGnH4cLQbYcafTgRgRAUtyoVZvMSbl9RBxZlOXBixYfAbFASWE8aWI9kQccXATxcbP7EWayIveEEFHPEXjd1bMrrK7CYqJOQ+2uOsiXQwTg7skh+F4Z2mjulgcumjUCZrcAas1Y4+SWrWZ9e8UFFFzIrp6Fz5NW30D+rr0o/9tPka9tH7eoFfNIMwKwpKQZUHTXFAF5g1RFxcRKgNYUAXPsiZA5uHaa4uSmLVaWFbdbVbSqbbqrRwiKxKP4SzqDoLjpos7AXEBSMgAqumyKgPo6sqTPun0hbjr75rcIcTPHnjR/Bva6CQEhKypexe0uIO0Qx6MwUZHmL23HnxWocJMqMZcMIACSkgFQ0aU1AuK+kCYLMSwq4bonKgNKcBF8EHtife24fauyqkQtjm4NNq9cRtqBHbo6fe17ka/rSLerFvNrIQIgKS0EEKcnjoAxkFYsKvKA9mowrSp4Jzio4Fi4dxK/ltx6pFgcjVYVt5H50NfvUehguD6Kr7Q7+Up7uVWVmFeaEABJSROQ6CYxBIymbXlASxaL14iKsSKvEBTlCksMQRzldgTM94hkALnhHtF2fUmhA+zqCYXIV1TIBKUHUatOblcn5tdCBEBSWgggTk8eAeMiLGcLUfFKnIqRoKjaJ8kjiDPcjoD5HpHKzU5uWuVXFFz6Zwrt36dPI9DrJAr0PdfJU4LsWUIAJCVLQGOYxgjIIqxiVGRPLgIGhRhlkxyZCQriT3BXNIeA2aLiZNePtnspfyZgkT7dQFlH8g+eSNRhQHPTxz4goCOAOim4EHKKgPHBbRQkGzUjjEGr2RhPzPbSsjFWTpWKwdOKgDk93XHuQS1IdTPPptC+PbqrJ2/EBZQ3egZRcce04oTO3IkASIo79eq4WZkLW6kJZPqBbh43U+MpQpSp/h2ncAicFALZJtRJCdfcwdW7KLTmDaqb8zj58vPIV96LCi55jWukFDV3FvYBgSgCICm4GGyDgBAG+VKsBNSam8p4yISLxExUZOx0kgnVfzr7NOOD3+5GwGxxzEjl5mAt58VrpB3cSL6yQS0GVDu8k7Q1sym45BUKshUl0O8ktqJMJ1+vM1rcNzrwDgIgKd7RtWNmakUajMJnirCYx03HOMY+M/JgcYxWIWhLETBeS2n/ZMKB9RTa/G8Obv0L+brxV4krbmd3TFnKImtbP6Hg2r9TcM37pFXXUKBzD8obdycTlAkp94kTvYkASIo39e6IWZtJQyyh00EmVN9WY0r//p7jki5Tj0DZWBrD9lQRUG6ftKSui+UkUEih1X9ll8zfKbR9OZsQCylv5LXkH3gxVxdsm5yYHHvCYY5ENZVU/8ZVFNy5hcvK+ilv6NkUGDIpXLgtUJBcnzja8wiApHj+ErA/AEIcpKnS8c1JLIu3v8co/ZBUiIXqOxZZScbdhDiU5jSFfakgYCS+KVtTmExo1btJ276QtPXvUHDrl+QrbMXf0OnOFY9vI187/thffklS4mmHtxMd+JpCu5dQaOO/2W27ivxty8jfZywFTr0J9VCSQhMHGxEAScH14CgErMhDvAmkSlxijZVIbInx3ESOjzcH7AcCgkDLrHMa0dEDFNo2X7ecNKz8iPxt2nDNkpHkP/5C8h33jaRA1hqOkC+vmGWaS8F1bIn5+mMKHTpE/m592L0znAnK2eTrfSb3ydYVNCCQIgIgKSkCh9Nyi4As1iH+k5aIhcVKWiN5kf2xLC+pkBWVbpwWs7yV8A7Ypu34jBo+eYjyJ77Kz6lAE4lDS/9IoT0rKe+sXzXZp2+oPUShtW+Sf9iV/CPyoKvZzW/l5dbHe2RrSi6f+mr968PBpX9iS8c80mqqyN+5L7thJpKvx+lc/bV3fPS0EKcQN5C2bzWRfCiQCU/D3N9w9dgSCu6vJH/rEvIfV0GBwZdwFs9wooI28fvEEUAgDgJ5cfZjNxCwJQLynZsA/0kTF4wiLbGyg6wmoX+R2ZhJxB91U81MYMS0LqTISIjU/80uIOWekr6U68lqfLdvC372BAW3raF8C4Iic6+f+wR/ZK5rTBiCTGLqP3qW8vesoMCEB/nt/3Wq+/tdlD9yIgXOuD/meW7fkVcxg6/baQlPM7TjUyImgw0LfkehGg5iLetCgVO+zQXVJhO17qxbQywbExLy5+nZPuLO8TXUcTDs35hYCknZQ6Hqaj6XyWdpMeUPnkD+EdPYVdSXXUWtLbvDRiCQCgIgKamghnNsh4AiLfK+ns9/qVhahJhIU+QlFoExTl7/ojP/xXLpmAmM7YDLoEChXasp0LGb9Qj1h0k7cpTyTjrdej9vFcIprWHpP3SSon39L/13cNW7niYpCjC5PuVat2zBOsZ3LwfFcgrw2rc5KHaDXqckb/CZFBjElg5zGjBbraighLT9a/XzfCGOW9nPGT8b55Amfe3ZqLtyiEmJLz+frSalFCjvT4GB55OPK8f62vB3eJjwoAGBdCMAkpJuRNGfLRAwW1pEKCNxsbK4WNVnSXQyQlSkT6kGGrWwREhPon246rjqnfpDLX/EFZbTCq38X317YAi/zcdo2p4N+h6tnt/o969j8vh5+HeQf6OFsWDrnvnr2drhHSSuNsE4uH2lXuU10GMABYZN5mO5RomkFh/hb+gE8knjQFchI8TEJLjhA6K6I6QVtOJreV0YYR+72bh2ir+0VCcoeX1PYbcou4fKjmeXzonhomycIYQGBDKFAEhKppBFv7ZDoBFxYenUW6iZvIjgqRAWOce/+MnovD3t6vn8aR2HwLCrLK+D4JIXyV/CboF2/Sz3U8NRClVVka91K73ORsP8X4bf5OVofmiiWSMQrk/yFsfyzNHdMf5WnLXTtT/Hikwg7cAGCu1YzFaQThSsruTsni/1GJNQzSGOUTnKYT9hQiIuHF+rIg4jyiP/gLP5eI4BYjeOf+CFpFVtY6tJd+vBsRUIZAABkJQMgIounYWAmbwIacmr4PXbFIPirFnlVtqGpW+yO4BdPRa1NiS+Ibh7B+WPmhJTyNCKl3UyUjB+BtW++wvORPlEP1aITajmSMzzvLDDbDmhUL0eZBxc8RcKrfob1yfZGoVB42BX38EdHNvzJHMQH7tuJPiV/wL8bdkQW0gYT4kL8hUe5ODZzhznNYZxZ0tVcScOqB1DPvm+Tqtj39gBQfHCFWavOYKk2EsfkCbLCAghkdYw/xH932QsKBLDIkGMKstIxVCoKUi2kBebtnUuZ37UctzIVMvphxb9j749wCXSY7WGhc+G3+z7X0AFBzZS3byZulUlcPw3KLT4TY6RWE6+jkNjne6Z7UJY5AvDwQWPcr2Tr/Q4H2MTK1SQSZ1YR/ydOG6kuAP5CjhQluNM/H2/SVTUXo8n8ZUN5JugljQuthYNpJVsHh+TGTQgkEMEQFJyCD6Gzg0CQkyElCRKSFRArbhvFPEwvs1Gs4x4Oor05GZm9hhVyqFL8w+8yFKg4IZP+A2dPzAXI5U4tOwF3bUTOG4IB2myu6LiDsrndFf/oInsbmArgZCU9W97lqSYrzFNgpCr+Ds5JoKiwPcVFrCF5IRwkTZ23fh7jWerSS8mJPmNM3sC7OIxagwExfL6xcbsIgCSkl28MVqOETDXPFEERMQykhD53cSsnmPZHTP84V26qPWzLiZ/7zGkiTvi4FbS2CWRN/L7/DANZ/bUz55M/vIh/Hsf1/DYoZ+Tf9YDVPfeL8P/H31rdMqBMx8K/7/TMP73Lgpu5EJko2ZE93vpP8pyp+bs7z6G/JPZvfbV8xxz8jlplWsouCesAzlGrFoNaxdx4bZVnC5cTqENc3RLiq8Dx5l0YmsUY+rvdALqmnjpInLQXFHMzUHKgqjpQUC9iWaKhHi9HL62cxHVzrqG3QfyLRdT47iIggk3Ut0HYZePebe/jGMh8tnKwimw+VPfM+/Wf9f96QwKHdxHRTcuCmeXWB7l3o2KaDcpFMgZOlR7kMngQT1bJ1S5jAnLCv7jekAR0uKXQOQgpxczcRELi6+wkP84gJn/fB36cYxKFyYtQ5mwj9VdQWhAINcIwJKSaw1g/KwjkClyYp6IxKg0rbNqPsp9v31dTqWim5fyt1w26NYTKmrHboUiLgi2Uw/K1Pef+D3ONuHUVyYjKrjWJ64cPZMkRsZPBKq8M26nujdv0z+M5x9qneLsPlSPzUiluDfJHpPUYv7TXTactRPofDKTlgOcwn2E8tpzkTX+MrFk54Qql3NMzxrylXRmnbDF5WgVF937mnyVW6hBiCWTGMn0yRs4mvLG/iSuPtyMNeaWewRgScm9DiCByxAQS03tq+GKoEW3rnDZ7OwxHa2+hokP1+eIUc3WHlKmXwqjuzLlDwyKWJziTUwKdeJYyB8TrKtmYlPP9VHm8R9XqCWNi75dxHFAl+pF3tCAQK4QgCUlV8hjXNciEE5pHqAH5gphyZblxrWAWkxMAmq93lp0XbFli9r35/Tj/mEYI5k8gV4TwtY//lIyMREEQfH6VZb7+SO/LPc6gAQuREBSk6Wp1GYXThFTyjIC5i9rp3V4cyaPWKjwgcC0QozOUkMAJCU13HAWEGgWAbM1pdmDsRMIJImAV2vwJAkTDncBAiApLlAipmBPBGBNsadenCiV2YrSIlePEwGAzJ5FACTFs6rHxDONgNGaIg8ZNCCQCgIS16QyeuR8L39ZOxX8cI6zEQBJcbb+IL3NEVDWFHnIgKjYXFk2Fc8Y15RfcaVNpYRYQCAzCICkZAZX9AoEdATEmqIeLEJUzCXNARMQaA4BIbbq8w1yHcGK0hxa2OdGBEBS3KhVzMlWCMiDRZXfR7aPrVRja2HMn3BAsKyt1QXhMoQASEqGgEW3QMCIQP4k/rYKfzVZ3oqlbD4aEGgOATNBaVHhtuYGwj4gYHMEUHHW5gqCeO5CQH3XR2aFB4+7dJuu2YCgpAtJ9OMGBGBJcYMWMQfHIKACaUVgKZ2PYFrHqC4rgoKgZAVmDOIgBGBJcZCyIKp7EDBaVBAQ6R69tmQmxmtC+oGlrSVo4ly3IACS4hZNYh6OQ8D41ixERQIjUaTLcWpsscCS8SUB1SqLRzoEQWkxrOjAJQiApLhEkZiGMxEwm/dhVXGmHlOV2qx/Ca4WlyDIaqqI4jy3IQCS4jaNYj6OQ8DqTRpkxXFqTEpg6DwpuHCwhxEASfGw8jF1eyFgfqsW6UBW7KWjdEhj1jOsJ+lAFX24FQGQFLdqFvNyLALmh5hMRFWtRcVRx6pVz+QyfoNH6RU6da5OIXnmEQBJyTzGGAEIpISA1UNN3rr9PUahPHpKiObmJCvXDqwnudEFRnUeAiApztMZJPYYAlZkRSCAdcXeF4IVOYH7zt46g3T2QwAkxX46gURAwBIBISvSzC4D2QbCYglZ1jdaERNYTbKuBgzoIgRAUlykTEzFOwgIYQltXdiotoaaPQhLdq8DK2IiEoCcZFcPGM2dCICkuFOvmJWHEGiOsKgYFhSKS98FIaREmrkAm2wDMUkfzugJCAgCICm4DoCAixBojrDINGFlSU3ZyloiZxsrw8pvEJPUMMVZQCARBEBSEkEJxwABByLQXAyLTAeExVqpRkuJHGEmJbINFipr7LAVCKQbAZCUdCOK/oCADRGQB29I/mLEsYjIXiUtiWAjpEQaStbb8OKGSK5GACTF1erF5ICANQLKyhKLtCjC4qZYFmUhiUfWFGLKjSO/8S0d6+sIW4FApj0CdwsAAAFQSURBVBEASck0wugfCDgAgXjWBOXekKk4gbikQkhkbmIpkQZS4oCLFiJ6AgGQFE+oGZMEAskhoEiLnGVVl0X1lmvykkj8iNXMEVNihQq2AQH7IQCSYj+dQCIgYEsE4rmIlNAqfkN+Swl/YxMrjLR4lgpFPuRYcc/o/3I8jWpWwazRnYb/KFlEjkTHtuoH24AAEMgNAiApucEdowIBxyNgtLbEim3JxiSNRETGAxnJBuoYAwhkBwGQlOzgjFGAgGcQMMaDqEkrK4jZAiIEQ7YZrS9moIzWGEVA5Jh41hhzP/gNBICA8xAASXGeziAxEAACQAAIAAFPIOD3xCwxSSAABIAAEAACQMBxCICkOE5lEBgIAAEgAASAgDcQAEnxhp4xSyAABIAAEAACjkMAJMVxKoPAQAAIAAEgAAS8gQBIijf0jFkCASAABIAAEHAcAv8fH+BNgdCq6QIAAAAASUVORK5CYII=;" parent="1" vertex="1">
          <mxGeometry x="90" y="520" width="468.65" height="300" as="geometry" />
        </mxCell>
        <mxCell id="tUkZWnW8giM7kNb6S3YY-7" value="Conversation&amp;nbsp;&lt;div&gt;-&amp;gt; DB (mongo -NoSQL)&lt;div&gt;-&amp;gt; Postgres - JsonB&lt;/div&gt;&lt;/div&gt;" style="text;html=1;align=center;verticalAlign=middle;resizable=0;points=[];autosize=1;strokeColor=none;fillColor=none;" parent="1" vertex="1">
          <mxGeometry x="980" y="560" width="150" height="60" as="geometry" />
        </mxCell>
        <mxCell id="tUkZWnW8giM7kNb6S3YY-8" value="" style="endArrow=classic;html=1;rounded=0;" parent="1" edge="1">
          <mxGeometry width="50" height="50" relative="1" as="geometry">
            <mxPoint x="370" y="820" as="sourcePoint" />
            <mxPoint x="420" y="770" as="targetPoint" />
          </mxGeometry>
        </mxCell>
        <mxCell id="tUkZWnW8giM7kNb6S3YY-11" value="Limit token" style="text;html=1;align=center;verticalAlign=middle;resizable=0;points=[];autosize=1;strokeColor=none;fillColor=none;" parent="1" vertex="1">
          <mxGeometry x="250" y="848" width="80" height="30" as="geometry" />
        </mxCell>
        <mxCell id="tUkZWnW8giM7kNb6S3YY-12" value="1 trieu token" style="text;html=1;align=center;verticalAlign=middle;resizable=0;points=[];autosize=1;strokeColor=none;fillColor=none;" parent="1" vertex="1">
          <mxGeometry x="335" y="930" width="90" height="30" as="geometry" />
        </mxCell>
        <mxCell id="tUkZWnW8giM7kNb6S3YY-13" value="userinput + system inpu (data from db -&amp;gt; Summarize)t + memory (x)&amp;nbsp;" style="text;html=1;align=center;verticalAlign=middle;resizable=0;points=[];autosize=1;strokeColor=none;fillColor=none;" parent="1" vertex="1">
          <mxGeometry x="-55" y="930" width="390" height="30" as="geometry" />
        </mxCell>
        <mxCell id="tUkZWnW8giM7kNb6S3YY-14" value="Data get from DB&amp;nbsp;" style="text;html=1;align=center;verticalAlign=middle;resizable=0;points=[];autosize=1;strokeColor=none;fillColor=none;" parent="1" vertex="1">
          <mxGeometry x="320" y="970" width="120" height="30" as="geometry" />
        </mxCell>
        <mxCell id="tUkZWnW8giM7kNb6S3YY-15" value="Count -&amp;gt; LLM -&amp;gt; too large -&amp;gt; 10..." style="text;html=1;align=center;verticalAlign=middle;resizable=0;points=[];autosize=1;strokeColor=none;fillColor=none;" parent="1" vertex="1">
          <mxGeometry x="460" y="930" width="200" height="30" as="geometry" />
        </mxCell>
        <mxCell id="tUkZWnW8giM7kNb6S3YY-16" value="-&amp;gt; link -&amp;gt; detail" style="text;html=1;align=center;verticalAlign=middle;resizable=0;points=[];autosize=1;strokeColor=none;fillColor=none;" parent="1" vertex="1">
          <mxGeometry x="620" y="890" width="100" height="30" as="geometry" />
        </mxCell>
        <mxCell id="tUkZWnW8giM7kNb6S3YY-35" style="edgeStyle=orthogonalEdgeStyle;rounded=0;orthogonalLoop=1;jettySize=auto;html=1;" parent="1" source="tUkZWnW8giM7kNb6S3YY-17" target="tUkZWnW8giM7kNb6S3YY-18" edge="1">
          <mxGeometry relative="1" as="geometry" />
        </mxCell>
        <mxCell id="tUkZWnW8giM7kNb6S3YY-17" value="Postgres" style="shape=cylinder3;whiteSpace=wrap;html=1;boundedLbl=1;backgroundOutline=1;size=15;" parent="1" vertex="1">
          <mxGeometry x="1250" y="460" width="60" height="80" as="geometry" />
        </mxCell>
        <mxCell id="tUkZWnW8giM7kNb6S3YY-18" value="langchain_chat_histories" style="shape=table;startSize=30;container=1;collapsible=0;childLayout=tableLayout;fixedRows=1;rowLines=0;fontStyle=0;strokeColor=default;fontSize=16;" parent="1" vertex="1">
          <mxGeometry x="1420" y="380" width="180" height="210" as="geometry" />
        </mxCell>
        <mxCell id="tUkZWnW8giM7kNb6S3YY-19" value="" style="shape=tableRow;horizontal=0;startSize=0;swimlaneHead=0;swimlaneBody=0;top=0;left=0;bottom=0;right=0;collapsible=0;dropTarget=0;fillColor=none;points=[[0,0.5],[1,0.5]];portConstraint=eastwest;strokeColor=inherit;fontSize=16;" parent="tUkZWnW8giM7kNb6S3YY-18" vertex="1">
          <mxGeometry y="30" width="180" height="30" as="geometry" />
        </mxCell>
        <mxCell id="tUkZWnW8giM7kNb6S3YY-20" value="1" style="shape=partialRectangle;html=1;whiteSpace=wrap;connectable=0;fillColor=none;top=0;left=0;bottom=0;right=0;overflow=hidden;pointerEvents=1;strokeColor=inherit;fontSize=16;" parent="tUkZWnW8giM7kNb6S3YY-19" vertex="1">
          <mxGeometry width="40" height="30" as="geometry">
            <mxRectangle width="40" height="30" as="alternateBounds" />
          </mxGeometry>
        </mxCell>
        <mxCell id="tUkZWnW8giM7kNb6S3YY-21" value="id" style="shape=partialRectangle;html=1;whiteSpace=wrap;connectable=0;fillColor=none;top=0;left=0;bottom=0;right=0;align=left;spacingLeft=6;overflow=hidden;strokeColor=inherit;fontSize=16;" parent="tUkZWnW8giM7kNb6S3YY-19" vertex="1">
          <mxGeometry x="40" width="140" height="30" as="geometry">
            <mxRectangle width="140" height="30" as="alternateBounds" />
          </mxGeometry>
        </mxCell>
        <mxCell id="tUkZWnW8giM7kNb6S3YY-22" value="" style="shape=tableRow;horizontal=0;startSize=0;swimlaneHead=0;swimlaneBody=0;top=0;left=0;bottom=0;right=0;collapsible=0;dropTarget=0;fillColor=none;points=[[0,0.5],[1,0.5]];portConstraint=eastwest;strokeColor=inherit;fontSize=16;" parent="tUkZWnW8giM7kNb6S3YY-18" vertex="1">
          <mxGeometry y="60" width="180" height="30" as="geometry" />
        </mxCell>
        <mxCell id="tUkZWnW8giM7kNb6S3YY-23" value="2" style="shape=partialRectangle;html=1;whiteSpace=wrap;connectable=0;fillColor=none;top=0;left=0;bottom=0;right=0;overflow=hidden;strokeColor=inherit;fontSize=16;" parent="tUkZWnW8giM7kNb6S3YY-22" vertex="1">
          <mxGeometry width="40" height="30" as="geometry">
            <mxRectangle width="40" height="30" as="alternateBounds" />
          </mxGeometry>
        </mxCell>
        <mxCell id="tUkZWnW8giM7kNb6S3YY-24" value="message_type" style="shape=partialRectangle;html=1;whiteSpace=wrap;connectable=0;fillColor=none;top=0;left=0;bottom=0;right=0;align=left;spacingLeft=6;overflow=hidden;strokeColor=inherit;fontSize=16;" parent="tUkZWnW8giM7kNb6S3YY-22" vertex="1">
          <mxGeometry x="40" width="140" height="30" as="geometry">
            <mxRectangle width="140" height="30" as="alternateBounds" />
          </mxGeometry>
        </mxCell>
        <mxCell id="tUkZWnW8giM7kNb6S3YY-25" value="" style="shape=tableRow;horizontal=0;startSize=0;swimlaneHead=0;swimlaneBody=0;top=0;left=0;bottom=0;right=0;collapsible=0;dropTarget=0;fillColor=none;points=[[0,0.5],[1,0.5]];portConstraint=eastwest;strokeColor=inherit;fontSize=16;" parent="tUkZWnW8giM7kNb6S3YY-18" vertex="1">
          <mxGeometry y="90" width="180" height="20" as="geometry" />
        </mxCell>
        <mxCell id="tUkZWnW8giM7kNb6S3YY-26" value="3" style="shape=partialRectangle;html=1;whiteSpace=wrap;connectable=0;fillColor=none;top=0;left=0;bottom=0;right=0;overflow=hidden;strokeColor=inherit;fontSize=16;" parent="tUkZWnW8giM7kNb6S3YY-25" vertex="1">
          <mxGeometry width="40" height="20" as="geometry">
            <mxRectangle width="40" height="20" as="alternateBounds" />
          </mxGeometry>
        </mxCell>
        <mxCell id="tUkZWnW8giM7kNb6S3YY-27" value="session_id" style="shape=partialRectangle;html=1;whiteSpace=wrap;connectable=0;fillColor=none;top=0;left=0;bottom=0;right=0;align=left;spacingLeft=6;overflow=hidden;strokeColor=inherit;fontSize=16;" parent="tUkZWnW8giM7kNb6S3YY-25" vertex="1">
          <mxGeometry x="40" width="140" height="20" as="geometry">
            <mxRectangle width="140" height="20" as="alternateBounds" />
          </mxGeometry>
        </mxCell>
        <mxCell id="tUkZWnW8giM7kNb6S3YY-28" value="" style="shape=tableRow;horizontal=0;startSize=0;swimlaneHead=0;swimlaneBody=0;top=0;left=0;bottom=0;right=0;collapsible=0;dropTarget=0;fillColor=none;points=[[0,0.5],[1,0.5]];portConstraint=eastwest;strokeColor=inherit;fontSize=16;" parent="tUkZWnW8giM7kNb6S3YY-18" vertex="1">
          <mxGeometry y="110" width="180" height="50" as="geometry" />
        </mxCell>
        <mxCell id="tUkZWnW8giM7kNb6S3YY-29" value="4" style="shape=partialRectangle;html=1;whiteSpace=wrap;connectable=0;fillColor=none;top=0;left=0;bottom=0;right=0;overflow=hidden;pointerEvents=1;strokeColor=inherit;fontSize=16;" parent="tUkZWnW8giM7kNb6S3YY-28" vertex="1">
          <mxGeometry width="40" height="50" as="geometry">
            <mxRectangle width="40" height="50" as="alternateBounds" />
          </mxGeometry>
        </mxCell>
        <mxCell id="tUkZWnW8giM7kNb6S3YY-30" value="message" style="shape=partialRectangle;html=1;whiteSpace=wrap;connectable=0;fillColor=none;top=0;left=0;bottom=0;right=0;align=left;spacingLeft=6;overflow=hidden;strokeColor=inherit;fontSize=16;" parent="tUkZWnW8giM7kNb6S3YY-28" vertex="1">
          <mxGeometry x="40" width="140" height="50" as="geometry">
            <mxRectangle width="140" height="50" as="alternateBounds" />
          </mxGeometry>
        </mxCell>
        <mxCell id="tUkZWnW8giM7kNb6S3YY-31" value="" style="shape=tableRow;horizontal=0;startSize=0;swimlaneHead=0;swimlaneBody=0;top=0;left=0;bottom=0;right=0;collapsible=0;dropTarget=0;fillColor=none;points=[[0,0.5],[1,0.5]];portConstraint=eastwest;strokeColor=inherit;fontSize=16;" parent="tUkZWnW8giM7kNb6S3YY-18" vertex="1">
          <mxGeometry y="160" width="180" height="50" as="geometry" />
        </mxCell>
        <mxCell id="tUkZWnW8giM7kNb6S3YY-32" value="5" style="shape=partialRectangle;html=1;whiteSpace=wrap;connectable=0;fillColor=none;top=0;left=0;bottom=0;right=0;overflow=hidden;pointerEvents=1;strokeColor=inherit;fontSize=16;" parent="tUkZWnW8giM7kNb6S3YY-31" vertex="1">
          <mxGeometry width="40" height="50" as="geometry">
            <mxRectangle width="40" height="50" as="alternateBounds" />
          </mxGeometry>
        </mxCell>
        <mxCell id="tUkZWnW8giM7kNb6S3YY-33" value="user_id" style="shape=partialRectangle;html=1;whiteSpace=wrap;connectable=0;fillColor=none;top=0;left=0;bottom=0;right=0;align=left;spacingLeft=6;overflow=hidden;strokeColor=inherit;fontSize=16;" parent="tUkZWnW8giM7kNb6S3YY-31" vertex="1">
          <mxGeometry x="40" width="140" height="50" as="geometry">
            <mxRectangle width="140" height="50" as="alternateBounds" />
          </mxGeometry>
        </mxCell>
        <mxCell id="tUkZWnW8giM7kNb6S3YY-34" value="&amp;nbsp;const { tableName, sessionId, pool, poolConfig, escapeTableName }&amp;nbsp;" style="text;html=1;align=center;verticalAlign=middle;resizable=0;points=[];autosize=1;strokeColor=none;fillColor=none;" parent="1" vertex="1">
          <mxGeometry x="1440" y="680" width="390" height="30" as="geometry" />
        </mxCell>
        <mxCell id="tUkZWnW8giM7kNb6S3YY-37" value="&lt;h1 style=&quot;margin-top: 0px;&quot;&gt;save_memories()&lt;/h1&gt;&lt;div&gt;&lt;br&gt;&lt;/div&gt;&lt;div&gt;Tool to save memories&lt;/div&gt;" style="text;html=1;whiteSpace=wrap;overflow=hidden;rounded=0;" parent="1" vertex="1">
          <mxGeometry x="940" y="690" width="210" height="100" as="geometry" />
        </mxCell>
        <mxCell id="tUkZWnW8giM7kNb6S3YY-40" style="edgeStyle=orthogonalEdgeStyle;rounded=0;orthogonalLoop=1;jettySize=auto;html=1;entryX=0;entryY=0.5;entryDx=0;entryDy=0;" parent="1" source="tUkZWnW8giM7kNb6S3YY-38" target="tUkZWnW8giM7kNb6S3YY-37" edge="1">
          <mxGeometry relative="1" as="geometry" />
        </mxCell>
        <mxCell id="tUkZWnW8giM7kNb6S3YY-38" value="&lt;h1 style=&quot;margin-top: 0px;&quot;&gt;summarize()&lt;/h1&gt;&lt;div&gt;&lt;br&gt;&lt;/div&gt;&lt;div&gt;Tool to summarize conversation (reduce token)&lt;/div&gt;" style="text;html=1;whiteSpace=wrap;overflow=hidden;rounded=0;" parent="1" vertex="1">
          <mxGeometry x="680" y="630" width="210" height="100" as="geometry" />
        </mxCell>
        <mxCell id="tUkZWnW8giM7kNb6S3YY-41" style="edgeStyle=orthogonalEdgeStyle;rounded=0;orthogonalLoop=1;jettySize=auto;html=1;entryX=0.46;entryY=0.933;entryDx=0;entryDy=0;entryPerimeter=0;" parent="1" source="tUkZWnW8giM7kNb6S3YY-37" target="tUkZWnW8giM7kNb6S3YY-7" edge="1">
          <mxGeometry relative="1" as="geometry" />
        </mxCell>
        <mxCell id="tUkZWnW8giM7kNb6S3YY-42" style="edgeStyle=orthogonalEdgeStyle;rounded=0;orthogonalLoop=1;jettySize=auto;html=1;entryX=0;entryY=0.5;entryDx=0;entryDy=0;entryPerimeter=0;" parent="1" source="tUkZWnW8giM7kNb6S3YY-7" target="tUkZWnW8giM7kNb6S3YY-17" edge="1">
          <mxGeometry relative="1" as="geometry" />
        </mxCell>
        <mxCell id="tfSceVbPBaqAiTwcqEkl-14" style="edgeStyle=orthogonalEdgeStyle;rounded=0;orthogonalLoop=1;jettySize=auto;html=1;entryX=0;entryY=0.5;entryDx=0;entryDy=0;" edge="1" parent="1" source="tfSceVbPBaqAiTwcqEkl-1" target="tfSceVbPBaqAiTwcqEkl-13">
          <mxGeometry relative="1" as="geometry" />
        </mxCell>
        <mxCell id="tfSceVbPBaqAiTwcqEkl-1" value="TraceParam" style="swimlane;fontStyle=0;childLayout=stackLayout;horizontal=1;startSize=26;fillColor=none;horizontalStack=0;resizeParent=1;resizeParentMax=0;resizeLast=0;collapsible=1;marginBottom=0;whiteSpace=wrap;html=1;" vertex="1" parent="1">
          <mxGeometry x="-180" y="1180" width="140" height="78" as="geometry" />
        </mxCell>
        <mxCell id="tfSceVbPBaqAiTwcqEkl-2" value="+ user_id: uuid" style="text;strokeColor=none;fillColor=none;align=left;verticalAlign=top;spacingLeft=4;spacingRight=4;overflow=hidden;rotatable=0;points=[[0,0.5],[1,0.5]];portConstraint=eastwest;whiteSpace=wrap;html=1;" vertex="1" parent="tfSceVbPBaqAiTwcqEkl-1">
          <mxGeometry y="26" width="140" height="26" as="geometry" />
        </mxCell>
        <mxCell id="tfSceVbPBaqAiTwcqEkl-3" value="+ session_id: uuid" style="text;strokeColor=none;fillColor=none;align=left;verticalAlign=top;spacingLeft=4;spacingRight=4;overflow=hidden;rotatable=0;points=[[0,0.5],[1,0.5]];portConstraint=eastwest;whiteSpace=wrap;html=1;" vertex="1" parent="tfSceVbPBaqAiTwcqEkl-1">
          <mxGeometry y="52" width="140" height="26" as="geometry" />
        </mxCell>
        <mxCell id="tfSceVbPBaqAiTwcqEkl-19" style="edgeStyle=orthogonalEdgeStyle;rounded=0;orthogonalLoop=1;jettySize=auto;html=1;entryX=0.5;entryY=0;entryDx=0;entryDy=0;" edge="1" parent="1" source="tfSceVbPBaqAiTwcqEkl-5" target="tfSceVbPBaqAiTwcqEkl-15">
          <mxGeometry relative="1" as="geometry" />
        </mxCell>
        <mxCell id="tfSceVbPBaqAiTwcqEkl-25" style="edgeStyle=orthogonalEdgeStyle;rounded=0;orthogonalLoop=1;jettySize=auto;html=1;entryX=0.5;entryY=0;entryDx=0;entryDy=0;" edge="1" parent="1" source="tfSceVbPBaqAiTwcqEkl-5" target="tfSceVbPBaqAiTwcqEkl-21">
          <mxGeometry relative="1" as="geometry" />
        </mxCell>
        <mxCell id="tfSceVbPBaqAiTwcqEkl-32" style="edgeStyle=orthogonalEdgeStyle;rounded=0;orthogonalLoop=1;jettySize=auto;html=1;entryX=0.5;entryY=0;entryDx=0;entryDy=0;" edge="1" parent="1" source="tfSceVbPBaqAiTwcqEkl-5" target="tfSceVbPBaqAiTwcqEkl-28">
          <mxGeometry relative="1" as="geometry" />
        </mxCell>
        <mxCell id="tfSceVbPBaqAiTwcqEkl-37" style="edgeStyle=orthogonalEdgeStyle;rounded=0;orthogonalLoop=1;jettySize=auto;html=1;entryX=0.5;entryY=0;entryDx=0;entryDy=0;" edge="1" parent="1" source="tfSceVbPBaqAiTwcqEkl-5" target="tfSceVbPBaqAiTwcqEkl-33">
          <mxGeometry relative="1" as="geometry" />
        </mxCell>
        <mxCell id="tfSceVbPBaqAiTwcqEkl-5" value="BaseTrace" style="swimlane;fontStyle=1;childLayout=stackLayout;horizontal=1;startSize=26;fillColor=none;horizontalStack=0;resizeParent=1;resizeParentMax=0;resizeLast=0;collapsible=1;marginBottom=0;whiteSpace=wrap;html=1;" vertex="1" parent="1">
          <mxGeometry x="130" y="1250" width="140" height="234" as="geometry" />
        </mxCell>
        <mxCell id="tfSceVbPBaqAiTwcqEkl-6" value="+ name: string" style="text;strokeColor=none;fillColor=none;align=left;verticalAlign=top;spacingLeft=4;spacingRight=4;overflow=hidden;rotatable=0;points=[[0,0.5],[1,0.5]];portConstraint=eastwest;whiteSpace=wrap;html=1;" vertex="1" parent="tfSceVbPBaqAiTwcqEkl-5">
          <mxGeometry y="26" width="140" height="26" as="geometry" />
        </mxCell>
        <mxCell id="tfSceVbPBaqAiTwcqEkl-7" value="+ user_id: uuid" style="text;strokeColor=none;fillColor=none;align=left;verticalAlign=top;spacingLeft=4;spacingRight=4;overflow=hidden;rotatable=0;points=[[0,0.5],[1,0.5]];portConstraint=eastwest;whiteSpace=wrap;html=1;" vertex="1" parent="tfSceVbPBaqAiTwcqEkl-5">
          <mxGeometry y="52" width="140" height="26" as="geometry" />
        </mxCell>
        <mxCell id="tfSceVbPBaqAiTwcqEkl-8" value="+ session_id: uuid" style="text;strokeColor=none;fillColor=none;align=left;verticalAlign=top;spacingLeft=4;spacingRight=4;overflow=hidden;rotatable=0;points=[[0,0.5],[1,0.5]];portConstraint=eastwest;whiteSpace=wrap;html=1;" vertex="1" parent="tfSceVbPBaqAiTwcqEkl-5">
          <mxGeometry y="78" width="140" height="26" as="geometry" />
        </mxCell>
        <mxCell id="tfSceVbPBaqAiTwcqEkl-9" value="+ metadata: dict" style="text;strokeColor=none;fillColor=none;align=left;verticalAlign=top;spacingLeft=4;spacingRight=4;overflow=hidden;rotatable=0;points=[[0,0.5],[1,0.5]];portConstraint=eastwest;whiteSpace=wrap;html=1;" vertex="1" parent="tfSceVbPBaqAiTwcqEkl-5">
          <mxGeometry y="104" width="140" height="26" as="geometry" />
        </mxCell>
        <mxCell id="tfSceVbPBaqAiTwcqEkl-10" value="+ tags: list[str]" style="text;strokeColor=none;fillColor=none;align=left;verticalAlign=top;spacingLeft=4;spacingRight=4;overflow=hidden;rotatable=0;points=[[0,0.5],[1,0.5]];portConstraint=eastwest;whiteSpace=wrap;html=1;" vertex="1" parent="tfSceVbPBaqAiTwcqEkl-5">
          <mxGeometry y="130" width="140" height="26" as="geometry" />
        </mxCell>
        <mxCell id="tfSceVbPBaqAiTwcqEkl-11" value="+ input: Any" style="text;strokeColor=none;fillColor=none;align=left;verticalAlign=top;spacingLeft=4;spacingRight=4;overflow=hidden;rotatable=0;points=[[0,0.5],[1,0.5]];portConstraint=eastwest;whiteSpace=wrap;html=1;" vertex="1" parent="tfSceVbPBaqAiTwcqEkl-5">
          <mxGeometry y="156" width="140" height="26" as="geometry" />
        </mxCell>
        <mxCell id="tfSceVbPBaqAiTwcqEkl-12" value="+ output: Any" style="text;strokeColor=none;fillColor=none;align=left;verticalAlign=top;spacingLeft=4;spacingRight=4;overflow=hidden;rotatable=0;points=[[0,0.5],[1,0.5]];portConstraint=eastwest;whiteSpace=wrap;html=1;" vertex="1" parent="tfSceVbPBaqAiTwcqEkl-5">
          <mxGeometry y="182" width="140" height="26" as="geometry" />
        </mxCell>
        <mxCell id="tfSceVbPBaqAiTwcqEkl-13" value="&lt;b&gt;constructor(TraceParam)&lt;/b&gt;" style="text;strokeColor=none;fillColor=none;align=left;verticalAlign=top;spacingLeft=4;spacingRight=4;overflow=hidden;rotatable=0;points=[[0,0.5],[1,0.5]];portConstraint=eastwest;whiteSpace=wrap;html=1;" vertex="1" parent="tfSceVbPBaqAiTwcqEkl-5">
          <mxGeometry y="208" width="140" height="26" as="geometry" />
        </mxCell>
        <mxCell id="tfSceVbPBaqAiTwcqEkl-15" value="&lt;b&gt;RoutingFunctionTrace&lt;/b&gt;" style="swimlane;fontStyle=0;childLayout=stackLayout;horizontal=1;startSize=26;fillColor=none;horizontalStack=0;resizeParent=1;resizeParentMax=0;resizeLast=0;collapsible=1;marginBottom=0;whiteSpace=wrap;html=1;" vertex="1" parent="1">
          <mxGeometry x="590" y="1530" width="140" height="52" as="geometry" />
        </mxCell>
        <mxCell id="tfSceVbPBaqAiTwcqEkl-18" value="+ super(TraceParams)" style="text;strokeColor=none;fillColor=none;align=left;verticalAlign=top;spacingLeft=4;spacingRight=4;overflow=hidden;rotatable=0;points=[[0,0.5],[1,0.5]];portConstraint=eastwest;whiteSpace=wrap;html=1;" vertex="1" parent="tfSceVbPBaqAiTwcqEkl-15">
          <mxGeometry y="26" width="140" height="26" as="geometry" />
        </mxCell>
        <mxCell id="tfSceVbPBaqAiTwcqEkl-21" value="Greeting trace" style="swimlane;fontStyle=1;align=center;verticalAlign=top;childLayout=stackLayout;horizontal=1;startSize=26;horizontalStack=0;resizeParent=1;resizeParentMax=0;resizeLast=0;collapsible=1;marginBottom=0;whiteSpace=wrap;html=1;" vertex="1" parent="1">
          <mxGeometry x="390" y="1530" width="160" height="60" as="geometry" />
        </mxCell>
        <mxCell id="tfSceVbPBaqAiTwcqEkl-22" value="+ super(TraceParams)" style="text;strokeColor=none;fillColor=none;align=left;verticalAlign=top;spacingLeft=4;spacingRight=4;overflow=hidden;rotatable=0;points=[[0,0.5],[1,0.5]];portConstraint=eastwest;whiteSpace=wrap;html=1;" vertex="1" parent="tfSceVbPBaqAiTwcqEkl-21">
          <mxGeometry y="26" width="160" height="26" as="geometry" />
        </mxCell>
        <mxCell id="tfSceVbPBaqAiTwcqEkl-23" value="" style="line;strokeWidth=1;fillColor=none;align=left;verticalAlign=middle;spacingTop=-1;spacingLeft=3;spacingRight=3;rotatable=0;labelPosition=right;points=[];portConstraint=eastwest;strokeColor=inherit;" vertex="1" parent="tfSceVbPBaqAiTwcqEkl-21">
          <mxGeometry y="52" width="160" height="8" as="geometry" />
        </mxCell>
        <mxCell id="tfSceVbPBaqAiTwcqEkl-26" value="add: tags and name" style="text;html=1;align=center;verticalAlign=middle;resizable=0;points=[];autosize=1;strokeColor=none;fillColor=none;" vertex="1" parent="1">
          <mxGeometry x="405" y="1590" width="130" height="30" as="geometry" />
        </mxCell>
        <UserObject label="from core.langfuse.traces.base import BaseTrace&#xa;from internal.common.schemas.langfuse_trace import TraceParams&#xa;&#xa;&#xa;class GreetingTrace(BaseTrace):&#xa;    def __init__(self, params: TraceParams):&#xa;        super().__init__(params.user_id, params.user_email, params.session_id)&#xa;        self.name = &quot;greeting&quot;&#xa;        self.tags.append(self.name)" link="from core.langfuse.traces.base import BaseTrace&#xa;from internal.common.schemas.langfuse_trace import TraceParams&#xa;&#xa;&#xa;class GreetingTrace(BaseTrace):&#xa;    def __init__(self, params: TraceParams):&#xa;        super().__init__(params.user_id, params.user_email, params.session_id)&#xa;        self.name = &quot;greeting&quot;&#xa;        self.tags.append(self.name)" id="tfSceVbPBaqAiTwcqEkl-27">
          <mxCell style="text;whiteSpace=wrap;" vertex="1" parent="1">
            <mxGeometry x="330" y="1630" width="450" height="150" as="geometry" />
          </mxCell>
        </UserObject>
        <mxCell id="tfSceVbPBaqAiTwcqEkl-28" value="&lt;b&gt;Other trace&lt;/b&gt;" style="swimlane;fontStyle=0;childLayout=stackLayout;horizontal=1;startSize=26;fillColor=none;horizontalStack=0;resizeParent=1;resizeParentMax=0;resizeLast=0;collapsible=1;marginBottom=0;whiteSpace=wrap;html=1;" vertex="1" parent="1">
          <mxGeometry x="810" y="1530" width="140" height="52" as="geometry" />
        </mxCell>
        <mxCell id="tfSceVbPBaqAiTwcqEkl-30" value="+ super(TraceParams)" style="text;strokeColor=none;fillColor=none;align=left;verticalAlign=top;spacingLeft=4;spacingRight=4;overflow=hidden;rotatable=0;points=[[0,0.5],[1,0.5]];portConstraint=eastwest;whiteSpace=wrap;html=1;" vertex="1" parent="tfSceVbPBaqAiTwcqEkl-28">
          <mxGeometry y="26" width="140" height="26" as="geometry" />
        </mxCell>
        <mxCell id="tfSceVbPBaqAiTwcqEkl-33" value="&lt;b&gt;LangfuseClient&lt;/b&gt;" style="swimlane;fontStyle=0;childLayout=stackLayout;horizontal=1;startSize=26;fillColor=none;horizontalStack=0;resizeParent=1;resizeParentMax=0;resizeLast=0;collapsible=1;marginBottom=0;whiteSpace=wrap;html=1;" vertex="1" parent="1">
          <mxGeometry x="270" y="1050" width="460" height="140" as="geometry" />
        </mxCell>
        <mxCell id="tfSceVbPBaqAiTwcqEkl-38" style="edgeStyle=orthogonalEdgeStyle;rounded=0;orthogonalLoop=1;jettySize=auto;html=1;" edge="1" parent="tfSceVbPBaqAiTwcqEkl-33" source="tfSceVbPBaqAiTwcqEkl-34">
          <mxGeometry relative="1" as="geometry">
            <mxPoint x="721.6666666666666" y="83" as="targetPoint" />
          </mxGeometry>
        </mxCell>
        <mxCell id="tfSceVbPBaqAiTwcqEkl-34" value="+ getCallbackHandler(params= params,cls=BaseTrace) return callback function" style="text;strokeColor=none;fillColor=none;align=left;verticalAlign=top;spacingLeft=4;spacingRight=4;overflow=hidden;rotatable=0;points=[[0,0.5],[1,0.5]];portConstraint=eastwest;whiteSpace=wrap;html=1;" vertex="1" parent="tfSceVbPBaqAiTwcqEkl-33">
          <mxGeometry y="26" width="460" height="114" as="geometry" />
        </mxCell>
        <mxCell id="tfSceVbPBaqAiTwcqEkl-39" value="config&lt;div&gt;&lt;br&gt;&lt;/div&gt;" style="text;html=1;align=center;verticalAlign=middle;whiteSpace=wrap;rounded=0;" vertex="1" parent="1">
          <mxGeometry x="1010" y="1120" width="60" height="30" as="geometry" />
        </mxCell>
      </root>
    </mxGraphModel>
  </diagram>
</mxfile>
